<?xml version="1.0" encoding="utf-8" standalone="no"?>
<!DOCTYPE svg PUBLIC "-//W3C//DTD SVG 1.1//EN"
  "http://www.w3.org/Graphics/SVG/1.1/DTD/svg11.dtd">
<svg xmlns:xlink="http://www.w3.org/1999/xlink" width="432pt" height="288pt" viewBox="0 0 432 288" xmlns="http://www.w3.org/2000/svg" version="1.1">
 <metadata>
  <rdf:RDF xmlns:dc="http://purl.org/dc/elements/1.1/" xmlns:cc="http://creativecommons.org/ns#" xmlns:rdf="http://www.w3.org/1999/02/22-rdf-syntax-ns#">
   <cc:Work>
    <dc:type rdf:resource="http://purl.org/dc/dcmitype/StillImage"/>
    <dc:date>2022-01-21T08:39:19.645906</dc:date>
    <dc:format>image/svg+xml</dc:format>
    <dc:creator>
     <cc:Agent>
      <dc:title>Matplotlib v3.5.0, https://matplotlib.org/</dc:title>
     </cc:Agent>
    </dc:creator>
   </cc:Work>
  </rdf:RDF>
 </metadata>
 <defs>
  <style type="text/css">*{stroke-linejoin: round; stroke-linecap: butt}</style>
 </defs>
 <g id="figure_1">
  <g id="patch_1">
   <path d="M 0 288 
L 432 288 
L 432 0 
L 0 0 
z
" style="fill: #ffffff"/>
  </g>
  <g id="axes_1">
   <g id="patch_2">
    <path d="M 54 252 
L 388.8 252 
L 388.8 34.56 
L 54 34.56 
z
" style="fill: #eaeaf2"/>
   </g>
   <g id="matplotlib.axis_1">
    <g id="xtick_1">
     <g id="line2d_1">
      <path d="M 69.218182 252 
L 69.218182 34.56 
" clip-path="url(#pa808d21157)" style="fill: none; stroke: #ffffff; stroke-linecap: round"/>
     </g>
     <g id="text_1">
      <!-- 0 -->
      <g style="fill: #262626" transform="translate(66.159666 269.373594)scale(0.11 -0.11)">
       <defs>
        <path id="ArialMT-30" d="M 266 2259 
Q 266 3072 433 3567 
Q 600 4063 929 4331 
Q 1259 4600 1759 4600 
Q 2128 4600 2406 4451 
Q 2684 4303 2865 4023 
Q 3047 3744 3150 3342 
Q 3253 2941 3253 2259 
Q 3253 1453 3087 958 
Q 2922 463 2592 192 
Q 2263 -78 1759 -78 
Q 1097 -78 719 397 
Q 266 969 266 2259 
z
M 844 2259 
Q 844 1131 1108 757 
Q 1372 384 1759 384 
Q 2147 384 2411 759 
Q 2675 1134 2675 2259 
Q 2675 3391 2411 3762 
Q 2147 4134 1753 4134 
Q 1366 4134 1134 3806 
Q 844 3388 844 2259 
z
" transform="scale(0.015625)"/>
       </defs>
       <use xlink:href="#ArialMT-30"/>
      </g>
     </g>
    </g>
    <g id="xtick_2">
     <g id="line2d_2">
      <path d="M 135.387067 252 
L 135.387067 34.56 
" clip-path="url(#pa808d21157)" style="fill: none; stroke: #ffffff; stroke-linecap: round"/>
     </g>
     <g id="text_2">
      <!-- 50 -->
      <g style="fill: #262626" transform="translate(129.270035 269.373594)scale(0.11 -0.11)">
       <defs>
        <path id="ArialMT-35" d="M 266 1200 
L 856 1250 
Q 922 819 1161 601 
Q 1400 384 1738 384 
Q 2144 384 2425 690 
Q 2706 997 2706 1503 
Q 2706 1984 2436 2262 
Q 2166 2541 1728 2541 
Q 1456 2541 1237 2417 
Q 1019 2294 894 2097 
L 366 2166 
L 809 4519 
L 3088 4519 
L 3088 3981 
L 1259 3981 
L 1013 2750 
Q 1425 3038 1878 3038 
Q 2478 3038 2890 2622 
Q 3303 2206 3303 1553 
Q 3303 931 2941 478 
Q 2500 -78 1738 -78 
Q 1113 -78 717 272 
Q 322 622 266 1200 
z
" transform="scale(0.015625)"/>
       </defs>
       <use xlink:href="#ArialMT-35"/>
       <use xlink:href="#ArialMT-30" x="55.615234"/>
      </g>
     </g>
    </g>
    <g id="xtick_3">
     <g id="line2d_3">
      <path d="M 201.555951 252 
L 201.555951 34.56 
" clip-path="url(#pa808d21157)" style="fill: none; stroke: #ffffff; stroke-linecap: round"/>
     </g>
     <g id="text_3">
      <!-- 100 -->
      <g style="fill: #262626" transform="translate(192.380405 269.373594)scale(0.11 -0.11)">
       <defs>
        <path id="ArialMT-31" d="M 2384 0 
L 1822 0 
L 1822 3584 
Q 1619 3391 1289 3197 
Q 959 3003 697 2906 
L 697 3450 
Q 1169 3672 1522 3987 
Q 1875 4303 2022 4600 
L 2384 4600 
L 2384 0 
z
" transform="scale(0.015625)"/>
       </defs>
       <use xlink:href="#ArialMT-31"/>
       <use xlink:href="#ArialMT-30" x="55.615234"/>
       <use xlink:href="#ArialMT-30" x="111.230469"/>
      </g>
     </g>
    </g>
    <g id="xtick_4">
     <g id="line2d_4">
      <path d="M 267.724836 252 
L 267.724836 34.56 
" clip-path="url(#pa808d21157)" style="fill: none; stroke: #ffffff; stroke-linecap: round"/>
     </g>
     <g id="text_4">
      <!-- 150 -->
      <g style="fill: #262626" transform="translate(258.549289 269.373594)scale(0.11 -0.11)">
       <use xlink:href="#ArialMT-31"/>
       <use xlink:href="#ArialMT-35" x="55.615234"/>
       <use xlink:href="#ArialMT-30" x="111.230469"/>
      </g>
     </g>
    </g>
    <g id="xtick_5">
     <g id="line2d_5">
      <path d="M 333.893721 252 
L 333.893721 34.56 
" clip-path="url(#pa808d21157)" style="fill: none; stroke: #ffffff; stroke-linecap: round"/>
     </g>
     <g id="text_5">
      <!-- 200 -->
      <g style="fill: #262626" transform="translate(324.718174 269.373594)scale(0.11 -0.11)">
       <defs>
        <path id="ArialMT-32" d="M 3222 541 
L 3222 0 
L 194 0 
Q 188 203 259 391 
Q 375 700 629 1000 
Q 884 1300 1366 1694 
Q 2113 2306 2375 2664 
Q 2638 3022 2638 3341 
Q 2638 3675 2398 3904 
Q 2159 4134 1775 4134 
Q 1369 4134 1125 3890 
Q 881 3647 878 3216 
L 300 3275 
Q 359 3922 746 4261 
Q 1134 4600 1788 4600 
Q 2447 4600 2831 4234 
Q 3216 3869 3216 3328 
Q 3216 3053 3103 2787 
Q 2991 2522 2730 2228 
Q 2469 1934 1863 1422 
Q 1356 997 1212 845 
Q 1069 694 975 541 
L 3222 541 
z
" transform="scale(0.015625)"/>
       </defs>
       <use xlink:href="#ArialMT-32"/>
       <use xlink:href="#ArialMT-30" x="55.615234"/>
       <use xlink:href="#ArialMT-30" x="111.230469"/>
      </g>
     </g>
    </g>
    <g id="text_6">
     <!-- time(s) -->
     <g style="fill: #262626" transform="translate(203.07 284.295469)scale(0.12 -0.12)">
      <defs>
       <path id="ArialMT-74" d="M 1650 503 
L 1731 6 
Q 1494 -44 1306 -44 
Q 1000 -44 831 53 
Q 663 150 594 308 
Q 525 466 525 972 
L 525 2881 
L 113 2881 
L 113 3319 
L 525 3319 
L 525 4141 
L 1084 4478 
L 1084 3319 
L 1650 3319 
L 1650 2881 
L 1084 2881 
L 1084 941 
Q 1084 700 1114 631 
Q 1144 563 1211 522 
Q 1278 481 1403 481 
Q 1497 481 1650 503 
z
" transform="scale(0.015625)"/>
       <path id="ArialMT-69" d="M 425 3934 
L 425 4581 
L 988 4581 
L 988 3934 
L 425 3934 
z
M 425 0 
L 425 3319 
L 988 3319 
L 988 0 
L 425 0 
z
" transform="scale(0.015625)"/>
       <path id="ArialMT-6d" d="M 422 0 
L 422 3319 
L 925 3319 
L 925 2853 
Q 1081 3097 1340 3245 
Q 1600 3394 1931 3394 
Q 2300 3394 2536 3241 
Q 2772 3088 2869 2813 
Q 3263 3394 3894 3394 
Q 4388 3394 4653 3120 
Q 4919 2847 4919 2278 
L 4919 0 
L 4359 0 
L 4359 2091 
Q 4359 2428 4304 2576 
Q 4250 2725 4106 2815 
Q 3963 2906 3769 2906 
Q 3419 2906 3187 2673 
Q 2956 2441 2956 1928 
L 2956 0 
L 2394 0 
L 2394 2156 
Q 2394 2531 2256 2718 
Q 2119 2906 1806 2906 
Q 1569 2906 1367 2781 
Q 1166 2656 1075 2415 
Q 984 2175 984 1722 
L 984 0 
L 422 0 
z
" transform="scale(0.015625)"/>
       <path id="ArialMT-65" d="M 2694 1069 
L 3275 997 
Q 3138 488 2766 206 
Q 2394 -75 1816 -75 
Q 1088 -75 661 373 
Q 234 822 234 1631 
Q 234 2469 665 2931 
Q 1097 3394 1784 3394 
Q 2450 3394 2872 2941 
Q 3294 2488 3294 1666 
Q 3294 1616 3291 1516 
L 816 1516 
Q 847 969 1125 678 
Q 1403 388 1819 388 
Q 2128 388 2347 550 
Q 2566 713 2694 1069 
z
M 847 1978 
L 2700 1978 
Q 2663 2397 2488 2606 
Q 2219 2931 1791 2931 
Q 1403 2931 1139 2672 
Q 875 2413 847 1978 
z
" transform="scale(0.015625)"/>
       <path id="ArialMT-28" d="M 1497 -1347 
Q 1031 -759 709 28 
Q 388 816 388 1659 
Q 388 2403 628 3084 
Q 909 3875 1497 4659 
L 1900 4659 
Q 1522 4009 1400 3731 
Q 1209 3300 1100 2831 
Q 966 2247 966 1656 
Q 966 153 1900 -1347 
L 1497 -1347 
z
" transform="scale(0.015625)"/>
       <path id="ArialMT-73" d="M 197 991 
L 753 1078 
Q 800 744 1014 566 
Q 1228 388 1613 388 
Q 2000 388 2187 545 
Q 2375 703 2375 916 
Q 2375 1106 2209 1216 
Q 2094 1291 1634 1406 
Q 1016 1563 777 1677 
Q 538 1791 414 1992 
Q 291 2194 291 2438 
Q 291 2659 392 2848 
Q 494 3038 669 3163 
Q 800 3259 1026 3326 
Q 1253 3394 1513 3394 
Q 1903 3394 2198 3281 
Q 2494 3169 2634 2976 
Q 2775 2784 2828 2463 
L 2278 2388 
Q 2241 2644 2061 2787 
Q 1881 2931 1553 2931 
Q 1166 2931 1000 2803 
Q 834 2675 834 2503 
Q 834 2394 903 2306 
Q 972 2216 1119 2156 
Q 1203 2125 1616 2013 
Q 2213 1853 2448 1751 
Q 2684 1650 2818 1456 
Q 2953 1263 2953 975 
Q 2953 694 2789 445 
Q 2625 197 2315 61 
Q 2006 -75 1616 -75 
Q 969 -75 630 194 
Q 291 463 197 991 
z
" transform="scale(0.015625)"/>
       <path id="ArialMT-29" d="M 791 -1347 
L 388 -1347 
Q 1322 153 1322 1656 
Q 1322 2244 1188 2822 
Q 1081 3291 891 3722 
Q 769 4003 388 4659 
L 791 4659 
Q 1378 3875 1659 3084 
Q 1900 2403 1900 1659 
Q 1900 816 1576 28 
Q 1253 -759 791 -1347 
z
" transform="scale(0.015625)"/>
      </defs>
      <use xlink:href="#ArialMT-74"/>
      <use xlink:href="#ArialMT-69" x="27.783203"/>
      <use xlink:href="#ArialMT-6d" x="50"/>
      <use xlink:href="#ArialMT-65" x="133.300781"/>
      <use xlink:href="#ArialMT-28" x="188.916016"/>
      <use xlink:href="#ArialMT-73" x="222.216797"/>
      <use xlink:href="#ArialMT-29" x="272.216797"/>
     </g>
    </g>
   </g>
   <g id="matplotlib.axis_2">
    <g id="ytick_1">
     <g id="line2d_6">
      <path d="M 54 242.116364 
L 388.8 242.116364 
" clip-path="url(#pa808d21157)" style="fill: none; stroke: #ffffff; stroke-linecap: round"/>
     </g>
     <g id="text_7">
      <!-- −1.00 -->
      <g style="fill: #262626" transform="translate(16.668281 246.053161)scale(0.11 -0.11)">
       <defs>
        <path id="ArialMT-2212" d="M 3381 1997 
L 356 1997 
L 356 2522 
L 3381 2522 
L 3381 1997 
z
" transform="scale(0.015625)"/>
        <path id="ArialMT-2e" d="M 581 0 
L 581 641 
L 1222 641 
L 1222 0 
L 581 0 
z
" transform="scale(0.015625)"/>
       </defs>
       <use xlink:href="#ArialMT-2212"/>
       <use xlink:href="#ArialMT-31" x="58.398438"/>
       <use xlink:href="#ArialMT-2e" x="114.013672"/>
       <use xlink:href="#ArialMT-30" x="141.796875"/>
       <use xlink:href="#ArialMT-30" x="197.412109"/>
      </g>
     </g>
    </g>
    <g id="ytick_2">
     <g id="line2d_7">
      <path d="M 54 217.407273 
L 388.8 217.407273 
" clip-path="url(#pa808d21157)" style="fill: none; stroke: #ffffff; stroke-linecap: round"/>
     </g>
     <g id="text_8">
      <!-- −0.75 -->
      <g style="fill: #262626" transform="translate(16.668281 221.34407)scale(0.11 -0.11)">
       <defs>
        <path id="ArialMT-37" d="M 303 3981 
L 303 4522 
L 3269 4522 
L 3269 4084 
Q 2831 3619 2401 2847 
Q 1972 2075 1738 1259 
Q 1569 684 1522 0 
L 944 0 
Q 953 541 1156 1306 
Q 1359 2072 1739 2783 
Q 2119 3494 2547 3981 
L 303 3981 
z
" transform="scale(0.015625)"/>
       </defs>
       <use xlink:href="#ArialMT-2212"/>
       <use xlink:href="#ArialMT-30" x="58.398438"/>
       <use xlink:href="#ArialMT-2e" x="114.013672"/>
       <use xlink:href="#ArialMT-37" x="141.796875"/>
       <use xlink:href="#ArialMT-35" x="197.412109"/>
      </g>
     </g>
    </g>
    <g id="ytick_3">
     <g id="line2d_8">
      <path d="M 54 192.698182 
L 388.8 192.698182 
" clip-path="url(#pa808d21157)" style="fill: none; stroke: #ffffff; stroke-linecap: round"/>
     </g>
     <g id="text_9">
      <!-- −0.50 -->
      <g style="fill: #262626" transform="translate(16.668281 196.634979)scale(0.11 -0.11)">
       <use xlink:href="#ArialMT-2212"/>
       <use xlink:href="#ArialMT-30" x="58.398438"/>
       <use xlink:href="#ArialMT-2e" x="114.013672"/>
       <use xlink:href="#ArialMT-35" x="141.796875"/>
       <use xlink:href="#ArialMT-30" x="197.412109"/>
      </g>
     </g>
    </g>
    <g id="ytick_4">
     <g id="line2d_9">
      <path d="M 54 167.989091 
L 388.8 167.989091 
" clip-path="url(#pa808d21157)" style="fill: none; stroke: #ffffff; stroke-linecap: round"/>
     </g>
     <g id="text_10">
      <!-- −0.25 -->
      <g style="fill: #262626" transform="translate(16.668281 171.925888)scale(0.11 -0.11)">
       <use xlink:href="#ArialMT-2212"/>
       <use xlink:href="#ArialMT-30" x="58.398438"/>
       <use xlink:href="#ArialMT-2e" x="114.013672"/>
       <use xlink:href="#ArialMT-32" x="141.796875"/>
       <use xlink:href="#ArialMT-35" x="197.412109"/>
      </g>
     </g>
    </g>
    <g id="ytick_5">
     <g id="line2d_10">
      <path d="M 54 143.28 
L 388.8 143.28 
" clip-path="url(#pa808d21157)" style="fill: none; stroke: #ffffff; stroke-linecap: round"/>
     </g>
     <g id="text_11">
      <!-- 0.00 -->
      <g style="fill: #262626" transform="translate(23.092969 147.216797)scale(0.11 -0.11)">
       <use xlink:href="#ArialMT-30"/>
       <use xlink:href="#ArialMT-2e" x="55.615234"/>
       <use xlink:href="#ArialMT-30" x="83.398438"/>
       <use xlink:href="#ArialMT-30" x="139.013672"/>
      </g>
     </g>
    </g>
    <g id="ytick_6">
     <g id="line2d_11">
      <path d="M 54 118.570909 
L 388.8 118.570909 
" clip-path="url(#pa808d21157)" style="fill: none; stroke: #ffffff; stroke-linecap: round"/>
     </g>
     <g id="text_12">
      <!-- 0.25 -->
      <g style="fill: #262626" transform="translate(23.092969 122.507706)scale(0.11 -0.11)">
       <use xlink:href="#ArialMT-30"/>
       <use xlink:href="#ArialMT-2e" x="55.615234"/>
       <use xlink:href="#ArialMT-32" x="83.398438"/>
       <use xlink:href="#ArialMT-35" x="139.013672"/>
      </g>
     </g>
    </g>
    <g id="ytick_7">
     <g id="line2d_12">
      <path d="M 54 93.861818 
L 388.8 93.861818 
" clip-path="url(#pa808d21157)" style="fill: none; stroke: #ffffff; stroke-linecap: round"/>
     </g>
     <g id="text_13">
      <!-- 0.50 -->
      <g style="fill: #262626" transform="translate(23.092969 97.798615)scale(0.11 -0.11)">
       <use xlink:href="#ArialMT-30"/>
       <use xlink:href="#ArialMT-2e" x="55.615234"/>
       <use xlink:href="#ArialMT-35" x="83.398438"/>
       <use xlink:href="#ArialMT-30" x="139.013672"/>
      </g>
     </g>
    </g>
    <g id="ytick_8">
     <g id="line2d_13">
      <path d="M 54 69.152727 
L 388.8 69.152727 
" clip-path="url(#pa808d21157)" style="fill: none; stroke: #ffffff; stroke-linecap: round"/>
     </g>
     <g id="text_14">
      <!-- 0.75 -->
      <g style="fill: #262626" transform="translate(23.092969 73.089524)scale(0.11 -0.11)">
       <use xlink:href="#ArialMT-30"/>
       <use xlink:href="#ArialMT-2e" x="55.615234"/>
       <use xlink:href="#ArialMT-37" x="83.398438"/>
       <use xlink:href="#ArialMT-35" x="139.013672"/>
      </g>
     </g>
    </g>
    <g id="ytick_9">
     <g id="line2d_14">
      <path d="M 54 44.443636 
L 388.8 44.443636 
" clip-path="url(#pa808d21157)" style="fill: none; stroke: #ffffff; stroke-linecap: round"/>
     </g>
     <g id="text_15">
      <!-- 1.00 -->
      <g style="fill: #262626" transform="translate(23.092969 48.380433)scale(0.11 -0.11)">
       <use xlink:href="#ArialMT-31"/>
       <use xlink:href="#ArialMT-2e" x="55.615234"/>
       <use xlink:href="#ArialMT-30" x="83.398438"/>
       <use xlink:href="#ArialMT-30" x="139.013672"/>
      </g>
     </g>
    </g>
    <g id="text_16">
     <!-- E_a -->
     <g style="fill: #262626" transform="translate(10.283281 153.955312)rotate(-90)scale(0.12 -0.12)">
      <defs>
       <path id="ArialMT-45" d="M 506 0 
L 506 4581 
L 3819 4581 
L 3819 4041 
L 1113 4041 
L 1113 2638 
L 3647 2638 
L 3647 2100 
L 1113 2100 
L 1113 541 
L 3925 541 
L 3925 0 
L 506 0 
z
" transform="scale(0.015625)"/>
       <path id="ArialMT-5f" d="M -97 -1272 
L -97 -866 
L 3631 -866 
L 3631 -1272 
L -97 -1272 
z
" transform="scale(0.015625)"/>
       <path id="ArialMT-61" d="M 2588 409 
Q 2275 144 1986 34 
Q 1697 -75 1366 -75 
Q 819 -75 525 192 
Q 231 459 231 875 
Q 231 1119 342 1320 
Q 453 1522 633 1644 
Q 813 1766 1038 1828 
Q 1203 1872 1538 1913 
Q 2219 1994 2541 2106 
Q 2544 2222 2544 2253 
Q 2544 2597 2384 2738 
Q 2169 2928 1744 2928 
Q 1347 2928 1158 2789 
Q 969 2650 878 2297 
L 328 2372 
Q 403 2725 575 2942 
Q 747 3159 1072 3276 
Q 1397 3394 1825 3394 
Q 2250 3394 2515 3294 
Q 2781 3194 2906 3042 
Q 3031 2891 3081 2659 
Q 3109 2516 3109 2141 
L 3109 1391 
Q 3109 606 3145 398 
Q 3181 191 3288 0 
L 2700 0 
Q 2613 175 2588 409 
z
M 2541 1666 
Q 2234 1541 1622 1453 
Q 1275 1403 1131 1340 
Q 988 1278 909 1158 
Q 831 1038 831 891 
Q 831 666 1001 516 
Q 1172 366 1500 366 
Q 1825 366 2078 508 
Q 2331 650 2450 897 
Q 2541 1088 2541 1459 
L 2541 1666 
z
" transform="scale(0.015625)"/>
      </defs>
      <use xlink:href="#ArialMT-45"/>
      <use xlink:href="#ArialMT-5f" x="66.699219"/>
      <use xlink:href="#ArialMT-61" x="122.314453"/>
     </g>
    </g>
   </g>
   <g id="line2d_15">
    <path d="M 69.218182 188.044677 
L 69.224799 188.840651 
L 69.271117 187.710505 
L 69.324052 188.216362 
L 69.363753 187.711738 
L 69.376987 188.668206 
L 69.436539 187.881415 
L 69.45639 188.548364 
L 69.575494 188.160609 
L 69.588728 188.044859 
L 69.595344 187.940889 
L 69.615195 188.277747 
L 69.687981 188.199282 
L 69.893104 188.198644 
L 70.098228 188.205025 
L 70.64743 188.212076 
L 71.448073 188.211663 
L 71.785535 188.210465 
L 72.003892 188.222835 
L 72.533243 188.213943 
L 73.161847 188.182771 
L 73.274334 188.175424 
L 73.757367 188.218067 
L 73.889705 188.259184 
L 73.896322 188.229709 
L 74.002192 185.937787 
L 74.04851 187.439064 
L 74.074978 189.919578 
L 74.147764 186.671582 
L 74.22055 176.092297 
L 74.399205 106.733408 
L 74.531543 122.625778 
L 74.83592 183.404026 
L 75.047661 203.897413 
L 75.199849 236.109638 
L 75.279252 234.526325 
L 75.365271 227.317329 
L 75.709349 188.384323 
L 75.907856 184.60652 
L 75.987259 184.216117 
L 76.073278 184.501907 
L 76.106363 184.569565 
L 76.159298 184.426766 
L 76.205616 184.14619 
L 76.251934 184.524642 
L 76.450441 189.949472 
L 76.860688 220.008253 
L 76.940091 215.897526 
L 77.045961 201.085851 
L 77.356955 104.520883 
L 77.528994 74.7847 
L 77.548844 75.191012 
L 77.654715 89.154196 
L 77.873072 141.069335 
L 78.203916 224.773295 
L 78.230384 224.022666 
L 78.428891 203.742991 
L 78.647248 187.706475 
L 78.81267 186.192089 
L 78.825904 186.243857 
L 78.931774 186.656542 
L 78.958242 186.375514 
L 79.090579 186.057808 
L 79.136898 185.56651 
L 79.507443 177.771286 
L 79.553762 178.630455 
L 79.891223 186.926165 
L 79.937541 186.211401 
L 79.944158 186.174176 
L 79.983859 186.532922 
L 79.990476 186.555815 
L 80.016944 186.314477 
L 80.050028 185.846901 
L 80.102963 186.651919 
L 80.248535 188.437918 
L 80.334554 194.228496 
L 80.678633 233.311226 
L 80.751418 229.267431 
L 81.260919 159.576707 
L 81.479276 107.668433 
L 81.525594 112.811664 
L 81.750569 171.448499 
L 81.869673 166.458181 
L 82.081413 139.768336 
L 82.121114 143.316819 
L 82.49166 181.184298 
L 82.57768 191.337226 
L 82.835738 217.586763 
L 82.89529 220.621261 
L 82.948225 218.497025 
L 83.232752 194.071455 
L 83.391557 179.276566 
L 83.424641 180.498542 
L 83.556979 203.907227 
L 83.722401 225.172951 
L 83.762103 223.750435 
L 83.901057 209.335454 
L 84.549512 85.100632 
L 84.628915 93.915275 
L 84.68185 102.472208 
L 85.032545 181.304902 
L 85.072247 182.605699 
L 85.158266 182.438589 
L 85.211201 181.329277 
L 85.237669 180.749688 
L 85.290604 182.156438 
L 85.601598 190.477023 
L 85.356773 182.138727 
L 85.66115 188.248729 
L 85.786871 175.310845 
L 86.144183 142.322817 
L 86.150799 142.357667 
L 86.197118 146.282712 
L 86.885274 215.073003 
L 86.891891 215.02739 
L 86.971294 215.258844 
L 87.044079 211.656789 
L 87.216118 189.891941 
L 87.335222 178.374714 
L 87.381541 181.550417 
L 87.652833 220.934339 
L 87.752086 213.316172 
L 88.380691 152.651792 
L 88.387308 152.68851 
L 88.546113 159.459476 
L 88.612282 161.177878 
L 88.824022 172.464479 
L 88.837256 172.420254 
L 88.910042 170.271144 
L 89.009295 160.85842 
L 89.247503 143.566966 
L 89.293821 146.701396 
L 89.538646 170.835895 
L 89.618049 166.407939 
L 89.816556 146.442605 
L 89.922426 140.842835 
L 89.962127 141.828456 
L 90.127549 151.460913 
L 90.696602 222.716427 
L 90.802472 219.726456 
L 91.073764 209.172334 
L 91.1267 210.495519 
L 91.457544 225.255139 
L 91.503862 222.225214 
L 91.715603 185.198307 
L 91.920726 98.992982 
L 92.105999 48.278491 
L 92.119233 48.855976 
L 92.192019 65.081359 
L 92.747837 237.719705 
L 92.774305 237.096303 
L 92.853707 229.576243 
L 93.025747 206.865326 
L 93.455844 115.834943 
L 93.541864 123.648603 
L 93.680819 164.349666 
L 93.813156 181.166051 
L 93.846241 179.283894 
L 94.163851 138.114815 
L 94.236637 145.732963 
L 94.454994 168.174094 
L 94.977729 223.876173 
L 94.990962 223.664833 
L 95.10345 214.87996 
L 95.249021 196.488559 
L 95.387976 183.476892 
L 95.42106 184.625917 
L 95.473995 187.084998 
L 95.533547 184.771 
L 95.665885 177.462857 
L 95.71882 180.1246 
L 96.20847 213.181586 
L 96.234937 213.770788 
L 96.268022 211.961502 
L 96.651801 179.912727 
L 96.665035 180.042407 
L 96.691503 180.426627 
L 96.71797 179.385137 
L 96.837074 159.348655 
L 97.055432 134.490767 
L 97.081899 133.45943 
L 97.121601 135.001105 
L 97.31349 141.69008 
L 97.386276 141.088907 
L 97.465679 150.388786 
L 97.842841 188.062616 
L 97.902393 189.869888 
L 97.935478 188.039583 
L 98.1009 157.9512 
L 98.246472 136.589908 
L 98.279556 138.017826 
L 98.29279 138.422541 
L 98.332491 136.028318 
L 98.358959 134.91781 
L 98.39866 138.327333 
L 99.073583 223.665355 
L 99.119901 222.679359 
L 99.166219 223.785589 
L 99.179453 223.951552 
L 99.212537 222.906067 
L 99.576466 197.956369 
L 99.636018 201.578769 
L 99.913927 224.654318 
L 99.973479 225.542594 
L 100.019798 224.588667 
L 100.0992 214.516387 
L 100.390343 134.059909 
L 100.648402 70.404497 
L 100.734422 76.585469 
L 100.913078 126.7155 
L 101.210838 203.497167 
L 101.409344 214.117489 
L 101.442429 213.433188 
L 101.554916 201.968597 
L 102.037949 144.578687 
L 102.044566 144.701197 
L 102.117351 150.188482 
L 102.613618 197.5824 
L 102.871677 216.819101 
L 102.898144 216.253177 
L 103.090034 202.739432 
L 103.427495 167.889848 
L 103.487047 174.656543 
L 103.831125 228.680303 
L 103.923762 234.034397 
L 103.976697 232.272031 
L 104.095801 212.596343 
L 104.367093 165.422532 
L 104.605301 138.432508 
L 104.764107 116.979347 
L 104.803808 120.55077 
L 105.220672 187.013862 
L 105.24714 186.791468 
L 105.306692 187.007391 
L 105.366244 184.170807 
L 105.630919 147.313412 
L 105.723556 139.338057 
L 105.776491 140.84404 
L 105.922062 150.073148 
L 106.484498 221.895777 
L 106.537433 223.850505 
L 106.596985 222.126799 
L 106.835193 205.40472 
L 107.060167 180.784338 
L 107.119719 183.607003 
L 107.450563 223.083568 
L 107.5432 219.068907 
L 107.622603 213.031834 
L 107.926979 176.607056 
L 108.376928 94.201132 
L 108.383545 94.309161 
L 108.462947 101.392194 
L 108.92613 157.071493 
L 109.157721 186.754767 
L 109.290058 190.395795 
L 109.43563 203.310643 
L 109.634137 215.645441 
L 109.64737 215.567999 
L 109.713539 212.771075 
L 110.130403 188.991592 
L 110.156871 189.02111 
L 110.183338 188.813229 
L 110.342144 185.65344 
L 110.487715 186.012212 
L 110.825177 182.632146 
L 110.884729 181.852924 
L 110.937664 182.578569 
L 111.255274 189.376641 
L 111.281742 189.848601 
L 111.334677 188.543068 
L 111.407463 185.94598 
L 111.486865 186.370801 
L 111.506716 186.196116 
L 111.553034 186.72878 
L 111.665521 188.883786 
L 111.71184 187.807176 
L 111.910346 177.334325 
L 111.989749 179.621118 
L 112.141937 193.015374 
L 112.399996 215.465561 
L 112.41323 215.260519 
L 112.532334 208.414125 
L 112.763925 166.848969 
L 113.081536 118.297505 
L 113.101386 118.829786 
L 113.213873 136.517072 
L 113.690289 242.036413 
L 113.736608 241.11768 
L 113.822627 235.068305 
L 114.060835 201.114181 
L 114.5174 106.132043 
L 114.550485 109.134318 
L 114.656355 144.064945 
L 114.914414 188.024607 
L 115.053368 190.081738 
L 115.073219 189.90558 
L 115.19894 186.114097 
L 115.298193 171.26354 
L 115.576103 127.468625 
L 115.589336 127.866557 
L 115.695207 141.037186 
L 116.171622 214.077147 
L 116.376746 226.661696 
L 116.396597 227.030287 
L 116.436298 225.615339 
L 116.641422 205.360618 
L 116.886246 186.332987 
L 116.906097 186.284584 
L 116.932565 186.485576 
L 116.992117 189.517079 
L 117.356046 230.965151 
L 117.428831 226.11346 
L 117.567786 195.384803 
L 118.017734 58.16442 
L 118.064053 62.638021 
L 118.255942 138.101026 
L 118.507384 207.366671 
L 118.514001 207.431582 
L 118.540469 206.833699 
L 118.639722 194.290942 
L 118.990417 111.696569 
L 119.188924 78.7464 
L 119.215391 80.245245 
L 119.360963 110.747423 
L 119.678573 203.701384 
L 119.731508 205.595521 
L 119.784444 203.427267 
L 120.108671 179.352592 
L 120.188074 181.415043 
L 120.346879 185.621854 
L 120.393197 183.901363 
L 120.525535 166.123199 
L 120.671107 144.77495 
L 120.717425 146.801095 
L 121.061503 183.561231 
L 121.240159 191.844061 
L 121.756276 231.215742 
L 121.848913 233.299668 
L 121.888614 232.144015 
L 122.027569 217.955093 
L 122.146673 179.452066 
L 122.537069 49.20957 
L 122.550303 48.578799 
L 122.590004 53.165224 
L 122.762043 109.172123 
L 123.106122 209.773121 
L 123.139206 208.938991 
L 123.370797 192.518966 
L 123.701642 145.488721 
L 123.721492 146.349502 
L 123.807512 162.171362 
L 124.025869 213.69247 
L 124.098655 206.897834 
L 124.680941 139.481201 
L 124.700792 138.832481 
L 124.74711 140.955006 
L 124.859597 152.663828 
L 125.137506 192.743332 
L 125.190441 193.231683 
L 125.230143 192.562046 
L 125.567604 185.675757 
L 125.633773 182.750398 
L 126.04402 141.168031 
L 126.103572 145.181666 
L 126.791728 219.564805 
L 126.798345 219.532009 
L 126.824813 219.347339 
L 126.857897 219.814393 
L 126.877748 219.980727 
L 126.910832 219.059989 
L 127.069638 205.696541 
L 127.334313 185.181144 
L 127.347547 184.992845 
L 127.413716 185.683723 
L 127.440184 185.761617 
L 127.777645 191.001851 
L 128.055554 212.600827 
L 128.154808 217.196564 
L 128.21436 216.656175 
L 128.293762 212.086512 
L 128.472418 176.221037 
L 128.631223 150.261988 
L 128.677542 151.244129 
L 128.684159 151.305147 
L 128.710626 150.65412 
L 128.968685 142.551389 
L 128.988535 142.586632 
L 129.008386 142.315589 
L 129.074555 141.083201 
L 129.101023 142.341266 
L 129.226743 159.48629 
L 129.451718 189.300519 
L 129.51127 188.164521 
L 129.564205 185.732396 
L 129.72301 157.823572 
L 129.895049 138.902347 
L 129.921517 139.516654 
L 130.034004 148.313199 
L 130.695693 222.047872 
L 130.715543 222.194157 
L 130.755245 221.393197 
L 130.887582 213.227808 
L 131.165492 193.182483 
L 131.172109 193.175677 
L 131.191959 193.296991 
L 131.244894 195.102371 
L 131.456635 221.793845 
L 131.582356 229.859668 
L 131.641908 229.22434 
L 131.688226 226.025769 
L 131.833798 190.165023 
L 132.330064 44.443636 
L 132.369765 47.650284 
L 132.495486 91.044956 
L 132.879266 234.42716 
L 132.925584 235.94892 
L 132.978519 233.881881 
L 133.130708 217.466234 
L 133.706377 118.262986 
L 133.719611 118.548447 
L 133.779163 127.121058 
L 134.162942 190.845062 
L 134.215877 191.543244 
L 134.282046 191.213277 
L 134.348215 190.310441 
L 134.460702 184.182142 
L 134.870949 137.787826 
L 134.930501 142.023641 
L 135.148859 167.49862 
L 135.4003 202.497515 
L 135.651742 223.111682 
L 135.69806 223.983919 
L 135.737762 222.823653 
L 135.949502 207.574793 
L 136.207561 180.191326 
L 136.247262 181.311321 
L 136.326665 185.649537 
L 136.386217 183.866847 
L 136.472236 178.705472 
L 136.525171 181.25313 
L 136.690594 208.665787 
L 136.822931 220.883623 
L 136.86925 219.238871 
L 137.008204 197.60879 
L 137.213328 180.164912 
L 137.219945 180.151751 
L 137.233179 180.276096 
L 137.372133 184.609733 
L 137.418451 182.959445 
L 137.524322 158.286548 
L 137.623575 138.515166 
L 137.67651 143.747829 
L 137.934569 199.008825 
L 138.047056 190.61635 
L 138.311731 168.594459 
L 138.364666 169.108739 
L 138.410985 168.255508 
L 138.695511 152.748818 
L 138.794764 156.063831 
L 139.277797 193.836706 
L 139.297648 193.389798 
L 139.621875 173.040203 
L 139.899785 139.391736 
L 139.999038 143.062619 
L 140.177694 168.706021 
L 140.65411 220.219506 
L 140.693811 220.875158 
L 140.75998 220.225888 
L 140.832766 216.992925 
L 140.978337 200.594591 
L 141.243013 179.476282 
L 141.24963 179.50536 
L 141.289331 181.152667 
L 141.3555 184.74153 
L 141.408435 182.593529 
L 141.481221 179.080524 
L 141.534156 181.117919 
L 141.646643 198.823748 
L 141.858384 223.54573 
L 141.878234 223.338779 
L 141.937786 218.992786 
L 142.175994 172.218237 
L 142.592858 115.886784 
L 142.692112 111.918821 
L 142.725196 113.249092 
L 142.8443 136.059353 
L 143.161911 209.74883 
L 143.188378 210.146325 
L 143.228079 209.022964 
L 143.54569 184.767437 
L 143.678028 187.283059 
L 143.850067 189.092114 
L 143.750814 187.246907 
L 143.883151 188.962969 
L 143.903002 188.912571 
L 143.955937 189.113393 
L 143.975788 189.161647 
L 144.008872 189.005057 
L 144.088275 186.490158 
L 144.220613 176.096662 
L 144.432353 151.439912 
L 144.485288 154.012891 
L 145.259464 212.546531 
L 145.312399 210.828416 
L 145.63001 199.580058 
L 145.649861 199.427196 
L 145.689562 200.172426 
L 145.835134 208.985958 
L 145.987322 215.334201 
L 145.993939 215.313988 
L 146.03364 213.897112 
L 146.185829 198.788537 
L 146.457121 108.946509 
L 146.576225 85.195705 
L 146.635777 87.890373 
L 146.701946 93.271945 
L 147.019557 184.65322 
L 147.251148 231.418973 
L 147.270998 231.562587 
L 147.317317 230.856295 
L 147.403336 225.373549 
L 147.681245 185.049419 
L 147.992239 142.863118 
L 148.025324 144.181326 
L 148.157661 166.410092 
L 148.349551 187.826233 
L 148.52159 191.924978 
L 148.548058 191.818433 
L 148.62746 190.345081 
L 148.726714 188.350647 
L 148.792883 188.467107 
L 148.845818 187.833759 
L 148.971539 184.3266 
L 149.22298 144.679396 
L 149.295766 138.864528 
L 149.368552 139.857665 
L 149.481039 154.931487 
L 150.162579 226.369921 
L 150.195663 226.733172 
L 150.235364 225.911066 
L 150.275066 225.142752 
L 150.321384 226.522678 
L 150.480189 229.841259 
L 150.493423 229.789732 
L 150.539741 229.514779 
L 150.60591 226.13401 
L 150.731631 204.251143 
L 151.148495 136.772464 
L 151.426404 95.306305 
L 151.485956 102.847828 
L 151.644762 148.101908 
L 151.896203 211.0945 
L 152.266749 233.602902 
L 152.372619 231.094662 
L 152.465256 226.094177 
L 152.60421 201.886703 
L 153.007841 122.146554 
L 153.034308 123.630788 
L 153.160029 147.305546 
L 153.411471 185.130606 
L 153.418088 185.181418 
L 153.444555 184.739702 
L 153.550426 176.395167 
L 153.834952 154.105972 
L 153.901121 149.192385 
L 153.954056 153.024667 
L 154.562809 213.637403 
L 154.569426 213.62417 
L 154.602511 212.796452 
L 154.648829 211.088788 
L 154.701764 213.043043 
L 154.721615 213.446997 
L 154.761316 211.266147 
L 155.204648 176.131304 
L 155.211265 176.132196 
L 155.250966 177.705206 
L 155.350219 194.187672 
L 155.58181 224.22345 
L 155.621512 226.150821 
L 155.66783 222.766615 
L 155.806784 191.435591 
L 155.899421 175.950807 
L 155.952356 179.343534 
L 156.011908 182.746394 
L 156.064843 180.114114 
L 156.203798 155.831186 
L 156.461856 111.893001 
L 156.481707 112.713696 
L 156.812552 191.634252 
L 156.865487 192.078832 
L 156.925039 191.700859 
L 156.997824 187.520113 
L 157.183097 179.287772 
L 157.196331 179.347041 
L 157.236032 181.589292 
L 157.322052 186.57049 
L 157.381604 185.120635 
L 157.520559 171.468263 
L 157.831552 139.290332 
L 157.844786 139.417686 
L 157.897721 143.568274 
L 158.566027 220.848957 
L 158.678514 223.140654 
L 158.724832 222.107018 
L 158.877021 215.718612 
L 158.929956 217.680318 
L 159.141696 227.995974 
L 159.221099 226.542772 
L 159.24095 226.24618 
L 159.307118 217.303822 
L 159.96219 113.124954 
L 160.015126 117.536492 
L 160.120996 140.251346 
L 160.412139 198.752417 
L 160.445223 199.487326 
L 160.504775 197.931196 
L 160.815769 180.670209 
L 161.113529 140.40197 
L 161.212782 144.390961 
L 161.391438 165.419181 
L 161.808302 210.713873 
L 162.072978 220.570582 
L 162.271485 225.181433 
L 162.337653 225.825531 
L 162.370738 226.327997 
L 162.43029 225.580338 
L 162.516309 222.992248 
L 162.701582 192.436811 
L 163.13168 91.001785 
L 163.230933 103.303182 
L 163.383122 150.931883 
L 163.654414 216.528739 
L 163.760284 221.600464 
L 163.819836 221.147495 
L 163.932324 218.195293 
L 164.084512 199.096876 
L 164.316103 155.801186 
L 164.42859 159.535566 
L 164.706499 167.787163 
L 164.713116 167.788814 
L 164.72635 167.681919 
L 164.766051 167.291492 
L 164.825603 167.769749 
L 164.865305 167.626715 
L 164.891772 167.913631 
L 164.971175 172.221295 
L 165.202766 193.698041 
L 165.268935 193.208936 
L 165.70565 180.059669 
L 165.824754 161.954526 
L 165.983559 143.287364 
L 166.036494 144.24778 
L 166.129131 152.711207 
L 166.790819 217.734608 
L 166.81067 217.863543 
L 166.876839 217.47903 
L 166.949625 214.138093 
L 167.373106 185.840669 
L 167.49221 186.38441 
L 167.690716 188.909278 
L 167.796586 188.52777 
L 167.803203 188.543451 
L 167.829671 188.364476 
L 167.89584 187.574892 
L 167.948775 188.200425 
L 167.975242 188.328185 
L 168.067879 188.313255 
L 168.140665 188.363845 
L 168.147282 188.391387 
L 168.186983 188.586948 
L 168.233301 188.251953 
L 168.418574 187.182418 
L 168.484743 186.96875 
L 168.564145 187.041453 
L 168.610464 187.195993 
L 168.689866 187.100217 
L 168.901607 186.969863 
L 168.914841 186.994434 
L 169.172899 187.532514 
L 169.179516 187.52624 
L 169.232451 187.517354 
L 169.252302 187.578021 
L 169.311854 187.827648 
L 169.40449 187.797137 
L 169.470659 187.684191 
L 169.516977 187.829026 
L 169.543445 187.853858 
L 169.59638 187.734577 
L 169.6824 187.676229 
L 169.715484 187.78297 
L 169.821354 188.002065 
L 169.854439 187.887287 
L 169.933841 187.58084 
L 169.993393 187.645599 
L 170.08603 187.830007 
L 170.165432 187.755942 
L 170.231601 187.508906 
L 170.284536 187.728848 
L 170.29777 187.748403 
L 170.337472 187.583491 
L 170.469809 187.37279 
L 170.48966 187.397045 
L 170.509511 187.415299 
L 170.549212 187.305504 
L 170.648465 187.08817 
L 170.694784 187.209262 
L 170.939608 187.788608 
L 170.946225 187.782754 
L 171.138115 187.62119 
L 171.164583 187.745333 
L 171.230752 187.96663 
L 171.290304 187.841567 
L 171.435875 187.875196 
L 171.462343 187.91345 
L 171.495427 187.776126 
L 171.59468 187.551764 
L 171.634382 187.58611 
L 171.727018 187.666568 
L 171.76672 187.548924 
L 171.793187 187.518754 
L 171.826271 187.647533 
L 171.958609 187.808473 
L 171.965226 187.799141 
L 172.031395 187.563504 
L 172.071096 187.761514 
L 172.110798 187.964939 
L 172.176967 187.749284 
L 172.229902 187.881088 
L 172.309304 189.02006 
L 172.408558 195.667376 
L 172.719551 223.211873 
L 172.739402 222.713727 
L 172.865123 211.064078 
L 173.156266 174.577992 
L 173.189351 174.578575 
L 173.229052 172.949767 
L 173.540046 138.868723 
L 173.612831 146.851368 
L 173.970143 194.488297 
L 174.069397 191.566353 
L 174.320838 188.114685 
L 174.420092 186.409754 
L 174.598748 182.90937 
L 174.803871 154.217188 
L 174.922975 144.14684 
L 174.962677 146.371173 
L 175.756703 217.113284 
L 175.796405 215.991732 
L 176.259587 192.378703 
L 176.332373 196.390724 
L 176.643366 221.908889 
L 176.676451 220.626462 
L 176.808789 198.875164 
L 177.152867 121.412799 
L 177.192568 122.893978 
L 177.437393 153.272194 
L 177.530029 174.770464 
L 177.768237 216.379343 
L 177.781471 216.317712 
L 177.821172 214.035106 
L 177.966744 181.85628 
L 178.224803 122.137325 
L 178.271121 123.624813 
L 178.416692 137.306156 
L 178.542413 171.147532 
L 178.793855 219.115777 
L 178.899725 220.330934 
L 178.926193 219.987677 
L 179.005596 214.045916 
L 179.223953 171.79259 
L 179.429076 137.081063 
L 179.468778 139.622586 
L 179.938577 189.121837 
L 180.004746 189.913293 
L 180.070915 189.74022 
L 180.302506 187.760543 
L 180.348824 188.016285 
L 180.560564 189.004795 
L 180.600266 188.828778 
L 180.706136 187.393699 
L 180.805389 180.298418 
L 181.096532 147.293559 
L 181.182552 147.525889 
L 181.242104 150.455161 
L 181.44061 169.356946 
L 182.155234 229.228543 
L 182.274338 231.817192 
L 182.307423 231.341218 
L 182.426527 224.511759 
L 182.558865 193.429206 
L 182.90956 107.475417 
L 182.936027 107.243094 
L 182.962495 107.660677 
L 183.035281 117.914908 
L 183.531547 220.932401 
L 183.637417 213.605624 
L 183.769755 175.526521 
L 184.067515 82.052812 
L 184.127067 85.412337 
L 184.252788 113.731753 
L 184.636568 221.157179 
L 184.768905 225.69554 
L 184.795373 225.451063 
L 184.861542 221.603146 
L 185.377659 185.498994 
L 185.384276 185.466884 
L 185.457062 185.631598 
L 185.642335 186.331112 
L 185.675419 186.032205 
L 185.926861 178.234 
L 185.999647 176.990609 
L 186.045965 177.561787 
L 186.158452 185.644908 
L 186.31064 191.685225 
L 186.343725 191.193861 
L 186.495913 188.93445 
L 186.522381 189.221871 
L 186.853225 193.802104 
L 186.88631 193.21241 
L 186.965712 191.09203 
L 187.018647 192.543135 
L 187.28994 210.823424 
L 187.389193 206.882633 
L 187.620784 170.969773 
L 187.938395 99.796419 
L 187.964863 100.212665 
L 188.143518 109.14343 
L 188.719188 219.427469 
L 188.772123 216.449742 
L 189.188987 182.350315 
L 189.261773 179.583785 
L 189.308091 181.700967 
L 189.327942 182.247746 
L 189.37426 179.957339 
L 189.592617 165.75133 
L 189.678637 165.780861 
L 189.705104 165.316925 
L 189.744806 166.977673 
L 190.790274 226.987947 
L 190.829975 227.216776 
L 190.856443 226.693191 
L 191.002014 215.280745 
L 191.544599 87.120291 
L 191.590917 90.555506 
L 191.729872 128.760523 
L 192.093801 231.168341 
L 192.107035 231.237068 
L 192.140119 230.575598 
L 192.285691 220.330552 
L 192.828276 154.934545 
L 192.874594 157.172274 
L 193.24514 184.108036 
L 193.251756 184.105847 
L 193.278224 184.031874 
L 193.311308 184.271707 
L 193.344393 184.466422 
L 193.390711 183.93099 
L 193.476731 179.02344 
L 193.748023 157.586071 
L 193.800958 159.451754 
L 193.807575 159.529243 
L 193.847276 158.819503 
L 193.86051 158.704221 
L 193.886978 159.486266 
L 194.032549 175.728962 
L 194.297225 196.926022 
L 194.54205 210.343379 
L 194.568517 209.964206 
L 194.601602 209.504262 
L 194.641303 210.352034 
L 194.694238 211.580184 
L 194.75379 210.675783 
L 194.879511 210.028042 
L 194.899362 210.233972 
L 195.064784 216.012093 
L 195.164037 213.725151 
L 195.296375 199.691418 
L 195.594135 111.510157 
L 195.779408 81.254247 
L 195.786025 81.385586 
L 195.878661 88.622832 
L 196.0507 135.608908 
L 196.401395 225.697671 
L 196.467564 222.965486 
L 196.725623 198.258598 
L 197.182188 144.396494 
L 197.208656 143.776872 
L 197.261591 145.513891 
L 197.360844 164.045433 
L 197.552734 189.417269 
L 197.579201 189.330644 
L 197.618903 187.597597 
L 197.718156 167.645934 
L 197.903429 146.798944 
L 197.936513 147.583427 
L 198.022533 154.346586 
L 198.247507 182.281841 
L 198.273975 182.042323 
L 198.333527 187.533818 
L 198.73054 222.759445 
L 198.750391 222.415878 
L 198.849644 216.496025 
L 199.180488 187.978088 
L 199.206956 187.313468 
L 199.259891 188.989694 
L 199.365761 200.454958 
L 199.557651 221.49628 
L 199.597352 220.819871 
L 199.689989 215.654051 
L 199.809093 191.668824 
L 200.239191 109.432703 
L 200.278892 110.991811 
L 200.404613 132.979753 
L 200.795009 216.191519 
L 200.894263 217.333238 
L 200.947198 216.670951 
L 201.059685 207.160748 
L 201.41038 156.075551 
L 201.450081 153.401904 
L 201.509633 157.420551 
L 201.767692 188.493762 
L 201.860328 187.22772 
L 201.972815 177.850082 
L 202.078686 169.75395 
L 202.138238 171.009043 
L 202.19779 175.798441 
L 202.383063 186.477234 
L 202.5154 188.596716 
L 202.535251 188.44994 
L 202.60142 185.328808 
L 202.799926 158.507747 
L 202.978582 146.402915 
L 203.018284 145.832848 
L 203.051368 146.727877 
L 203.163855 160.205139 
L 203.673356 213.020357 
L 203.904947 217.527305 
L 203.938031 216.627242 
L 204.116687 212.286541 
L 204.136538 212.406821 
L 204.249025 215.096447 
L 204.308577 213.790418 
L 204.480616 201.967655 
L 204.68574 182.788959 
L 204.884246 170.03416 
L 205.168773 151.986973 
L 205.234941 154.246058 
L 205.393747 158.878554 
L 205.420214 158.562839 
L 205.433448 158.421554 
L 205.459916 159.192622 
L 205.995884 190.699325 
L 206.009117 190.687094 
L 206.035585 190.816114 
L 206.114988 191.980605 
L 206.161306 190.971794 
L 206.373046 187.611344 
L 206.425981 187.396613 
L 206.498767 187.513864 
L 206.717124 188.629284 
L 206.763443 188.468516 
L 206.78991 188.402239 
L 206.842845 188.631745 
L 206.882547 188.729179 
L 206.928865 188.541711 
L 207.180307 186.181784 
L 207.272943 176.298042 
L 207.531002 145.691183 
L 207.57732 147.364063 
L 207.762593 161.773389 
L 208.325028 217.902239 
L 208.338262 217.84161 
L 208.536769 208.637049 
L 208.715425 193.846072 
L 208.741892 194.370284 
L 208.847763 204.841187 
L 209.06612 223.886231 
L 209.099204 222.522899 
L 209.218308 204.463444 
L 209.370497 191.566791 
L 209.403581 191.752462 
L 209.423432 191.627084 
L 209.496218 188.643071 
L 209.641789 166.338317 
L 209.899848 127.45811 
L 209.926315 128.682104 
L 210.032186 148.477891 
L 210.283627 188.464891 
L 210.429199 191.441682 
L 210.501985 189.995094 
L 210.680641 187.43731 
L 210.687258 187.447422 
L 210.760043 188.088997 
L 210.832829 188.352794 
L 210.865914 188.149696 
L 210.918849 187.867099 
L 210.978401 188.13717 
L 211.011485 188.230455 
L 211.057803 187.999816 
L 211.196758 186.44857 
L 211.276161 182.750222 
L 211.726109 147.169943 
L 211.779044 149.20774 
L 211.931233 162.651958 
L 212.328246 213.747381 
L 212.672324 236.051348 
L 212.692175 236.132197 
L 212.725259 235.749932 
L 212.811279 231.404978 
L 213.023019 197.04077 
L 213.439883 90.054891 
L 213.55237 99.965467 
L 213.717792 134.177696 
L 214.12804 224.180874 
L 214.167741 224.933499 
L 214.214059 223.72399 
L 214.353014 211.542583 
L 214.72356 182.086945 
L 214.895599 174.907571 
L 214.955151 175.646685 
L 215.047787 179.594523 
L 215.173508 185.393892 
L 215.23306 184.471433 
L 215.365398 183.356912 
L 215.391865 183.589945 
L 215.782262 191.83412 
L 215.848431 190.726536 
L 215.967535 186.450884 
L 216.02047 188.679786 
L 216.4241 224.486867 
L 216.52997 219.361832 
L 216.688775 190.093557 
L 217.079172 98.964723 
L 217.138724 102.020349 
L 217.31738 122.834895 
L 217.800413 224.465515 
L 217.833497 223.815633 
L 217.945984 215.856671 
L 218.329764 186.476286 
L 218.541504 181.18903 
L 218.554738 181.232025 
L 218.61429 183.383317 
L 218.673842 184.724455 
L 218.746628 184.551729 
L 218.799563 184.92224 
L 218.892199 186.480377 
L 218.951751 185.610525 
L 219.156875 179.992348 
L 219.203193 180.661485 
L 219.434784 190.036238 
L 219.567122 205.751717 
L 219.745778 216.161439 
L 219.752395 216.15636 
L 219.792096 213.889941 
L 219.957518 186.051712 
L 220.20896 125.956495 
L 220.242045 127.445192 
L 220.460402 151.820995 
L 220.870649 220.145423 
L 220.8905 220.452981 
L 220.923584 219.136318 
L 221.069156 202.652401 
L 221.472786 115.47503 
L 221.48602 115.583498 
L 221.552188 121.11383 
L 221.671292 150.683913 
L 221.99552 218.578068 
L 222.055072 220.189625 
L 222.108007 218.66047 
L 222.372683 198.570931 
L 222.703527 183.908183 
L 222.723378 183.897365 
L 222.749845 184.060899 
L 222.842482 185.434428 
L 222.908651 184.579795 
L 222.915267 184.554195 
L 222.941735 184.800627 
L 222.99467 185.86536 
L 223.047605 184.839869 
L 223.219644 182.327563 
L 223.232878 182.334123 
L 223.252729 182.40337 
L 223.318898 183.282203 
L 223.365216 182.448475 
L 223.391683 182.228427 
L 223.444619 182.815005 
L 223.477703 183.196851 
L 223.530638 182.484424 
L 223.656359 180.990383 
L 223.689443 181.443808 
L 223.828398 190.455068 
L 224.07984 218.230612 
L 224.132775 216.100487 
L 224.225411 202.797546 
L 224.655509 129.860936 
L 224.787847 122.446252 
L 224.827548 123.635283 
L 224.926802 139.100236 
L 225.277497 199.384661 
L 225.29073 199.542283 
L 225.343666 198.716783 
L 225.502471 193.845607 
L 225.714211 162.151429 
L 225.826698 153.402265 
L 225.8664 155.087289 
L 226.124458 184.489135 
L 226.230329 191.019606 
L 226.283264 190.120888 
L 226.561173 184.348682 
L 227.070673 148.785511 
L 227.123609 150.72271 
L 227.229479 163.357923 
L 227.527239 198.431741 
L 227.977187 234.456228 
L 228.063207 229.327573 
L 228.215395 200.203021 
L 228.506538 143.885351 
L 228.519772 143.755885 
L 228.559473 144.93789 
L 228.738129 149.990107 
L 228.930019 177.741475 
L 229.201312 230.114444 
L 229.26748 227.78769 
L 229.432903 206.938293 
L 229.955637 136.152991 
L 229.982104 137.490917 
L 230.074741 156.76194 
L 230.312949 191.359793 
L 230.379118 192.661133 
L 230.425436 191.691715 
L 230.604092 186.559192 
L 230.670261 186.820612 
L 230.802599 189.127243 
L 230.934936 188.612074 
L 230.994488 187.317786 
L 231.073891 182.046702 
L 231.444437 142.431563 
L 231.464287 143.103624 
L 231.616476 156.843986 
L 231.987022 205.857904 
L 232.13921 214.260745 
L 232.165678 213.442534 
L 232.304632 208.340197 
L 232.35095 211.264958 
L 232.450204 217.560059 
L 232.503139 216.287909 
L 233.019256 191.331254 
L 233.555224 147.82409 
L 233.608159 150.323545 
L 233.806666 172.236931 
L 234.084575 184.561677 
L 234.111043 184.620604 
L 234.124277 184.448738 
L 234.144127 184.170001 
L 234.210296 184.678125 
L 234.230147 184.549772 
L 234.249997 184.356521 
L 234.283082 185.127414 
L 234.455121 188.382559 
L 234.468355 188.354431 
L 234.567608 187.577703 
L 234.660245 186.622361 
L 234.706563 186.951475 
L 234.971238 189.217579 
L 235.01094 189.081971 
L 235.077108 189.435679 
L 235.103576 189.161461 
L 235.255764 182.494202 
L 235.60646 150.215011 
L 235.666012 151.716467 
L 235.778499 157.491766 
L 236.01009 180.196569 
L 236.3277 209.076364 
L 236.407103 209.999285 
L 236.453421 209.29872 
L 236.479889 208.87447 
L 236.51959 209.984122 
L 236.71148 216.634219 
L 236.751181 216.377533 
L 236.797499 217.064798 
L 236.883519 218.749562 
L 236.92322 217.463552 
L 237.121727 202.547829 
L 237.234214 175.772594 
L 237.538591 103.739188 
L 237.584909 107.687652 
L 237.876052 166.660719 
L 238.160579 228.860563 
L 238.193663 229.788357 
L 238.246598 227.888889 
L 238.425254 213.477633 
L 238.736248 161.699263 
L 238.934754 138.115994 
L 238.961222 138.637438 
L 239.020774 146.54295 
L 239.298683 189.709328 
L 239.331768 190.097665 
L 239.378086 189.450812 
L 239.450872 187.236925 
L 239.517041 188.433636 
L 239.569976 189.026391 
L 239.609677 188.227698 
L 239.788333 173.222401 
L 240.026541 156.063579 
L 240.033158 156.16873 
L 240.132411 161.448652 
L 240.436788 183.467068 
L 240.807334 210.893502 
L 240.813951 210.898599 
L 240.827185 210.777838 
L 240.933055 209.203079 
L 241.005841 209.604111 
L 241.072009 213.11463 
L 241.343302 227.657292 
L 241.383003 226.094014 
L 241.548425 205.12647 
L 242.024841 125.878604 
L 242.038075 125.49928 
L 242.084393 128.223575 
L 242.236582 154.534915 
L 242.567426 216.413332 
L 242.600511 215.525856 
L 242.779167 198.248064 
L 243.149712 158.125654 
L 243.169563 157.764883 
L 243.209264 159.464868 
L 243.672447 192.896399 
L 243.758466 190.861477 
L 243.98344 186.757432 
L 244.228265 185.662742 
L 244.340752 178.40504 
L 244.711298 148.324095 
L 244.731149 148.898557 
L 244.883337 160.527156 
L 245.273734 203.28349 
L 245.564877 215.16977 
L 245.597961 215.00376 
L 245.644279 215.067122 
L 245.703831 213.398371 
L 245.849403 210.810963 
L 245.869254 210.868963 
L 245.942039 211.693856 
L 246.04791 214.407046 
L 246.114078 213.282169 
L 246.253033 202.351138 
L 246.616962 154.818948 
L 246.636813 154.52979 
L 246.696365 155.285075 
L 246.775767 158.755502 
L 246.848553 156.432112 
L 246.861787 156.54219 
L 247.073527 165.93369 
L 247.34482 193.136284 
L 247.371287 192.862548 
L 247.55656 188.240069 
L 247.728599 184.68338 
L 247.735216 184.695976 
L 247.788151 185.640002 
L 248.006509 188.586726 
L 248.032976 188.696301 
L 248.099145 188.467266 
L 248.185165 185.841656 
L 248.337353 167.546156 
L 248.522626 155.035826 
L 248.55571 155.650254 
L 248.846853 168.797553 
L 249.071828 192.459043 
L 249.290185 211.937411 
L 249.667348 230.382062 
L 249.713666 229.702622 
L 249.733516 229.810466 
L 249.74675 229.894112 
L 249.773218 229.246078 
L 249.898939 216.433353 
L 250.44814 115.917043 
L 250.481225 116.69717 
L 250.626796 136.90156 
L 250.977492 212.252067 
L 251.030427 210.67881 
L 251.142914 197.461118 
L 251.460524 169.043658 
L 251.61933 166.276349 
L 251.659031 166.65896 
L 251.692115 166.9568 
L 251.718583 166.572469 
L 251.745051 165.963168 
L 251.804603 167.694724 
L 251.930323 178.637756 
L 252.135447 194.946272 
L 252.148681 194.890806 
L 252.21485 192.007585 
L 252.393506 185.738426 
L 252.42659 185.884614 
L 252.572162 187.634272 
L 252.711116 189.533687 
L 252.730967 189.150984 
L 252.803753 181.501345 
L 253.035344 150.305524 
L 253.081662 150.634028 
L 253.12798 152.460946 
L 253.690416 209.607567 
L 253.802903 215.832766 
L 253.835987 215.319608 
L 253.948474 206.735412 
L 254.239618 168.494084 
L 254.345488 173.736984 
L 254.80867 213.541202 
L 254.894689 220.529027 
L 254.947625 217.803461 
L 255.086579 190.92893 
L 255.371105 151.50209 
L 255.424041 149.359363 
L 255.470359 151.695799 
L 255.556378 151.423209 
L 255.609313 153.302444 
L 255.821054 162.039196 
L 256.092346 194.925342 
L 256.184983 192.909443 
L 256.264385 189.912001 
L 256.833438 160.563537 
L 256.846672 160.681343 
L 256.959159 165.846961 
L 257.058412 175.78647 
L 257.283386 188.489141 
L 257.561296 214.454464 
L 257.687016 210.756977 
L 257.872289 187.020319 
L 258.057562 158.255742 
L 258.090647 159.583599 
L 258.309004 183.588821 
L 258.765569 227.925235 
L 258.792037 227.462978 
L 258.884673 221.279132 
L 259.069946 191.810368 
L 259.367706 149.152322 
L 259.473576 142.93035 
L 259.519895 144.924242 
L 259.850739 186.667195 
L 259.983077 193.898417 
L 260.016161 193.485381 
L 260.340389 188.249187 
L 260.413174 187.837887 
L 260.46611 188.109003 
L 260.684467 189.408163 
L 260.724168 189.321632 
L 260.962376 187.790119 
L 261.088097 179.408506 
L 261.366006 152.095651 
L 261.405708 152.845424 
L 261.478494 152.422487 
L 261.538046 157.77959 
L 261.802721 187.313021 
L 262.365157 224.981252 
L 262.471027 222.560056 
L 262.57028 214.604189 
L 262.815105 171.580623 
L 263.073164 138.910782 
L 263.106248 140.486632 
L 263.298138 173.172012 
L 263.642216 220.803205 
L 263.648833 220.796283 
L 263.65545 220.878705 
L 263.668684 221.043643 
L 263.701768 219.815144 
L 263.873807 202.344219 
L 264.330372 134.488472 
L 264.389924 136.563866 
L 264.54873 167.975163 
L 264.767087 195.900885 
L 264.800172 196.592243 
L 264.859724 195.490494 
L 265.210419 186.042888 
L 265.283204 187.392773 
L 265.415542 188.786571 
L 265.435393 188.748328 
L 265.640516 187.989148 
L 265.733153 188.168934 
L 265.865491 188.904048 
L 265.984595 188.703661 
L 266.077231 188.118094 
L 266.156634 188.236108 
L 266.196335 188.123678 
L 266.236036 188.320029 
L 266.295588 188.904468 
L 266.348523 188.461363 
L 266.421309 185.531771 
L 266.599965 168.75032 
L 266.791855 150.816322 
L 266.818323 151.067629 
L 266.957277 155.664876 
L 267.407226 202.166378 
L 267.751304 225.386192 
L 267.810856 227.149445 
L 267.890258 226.923639 
L 267.943194 226.020777 
L 268.042447 218.514062 
L 268.214486 183.844436 
L 268.518863 128.705968 
L 268.532097 128.882865 
L 268.73722 136.930703 
L 268.896026 175.952134 
L 269.147467 215.205021 
L 269.246721 216.609917 
L 269.279805 216.269548 
L 269.345974 211.254034 
L 269.762838 152.055845 
L 269.835624 159.39838 
L 270.100299 186.115491 
L 270.272338 189.741704 
L 270.33189 189.680134 
L 270.689202 185.034472 
L 270.814923 167.872186 
L 271.053131 151.769178 
L 271.066365 151.845034 
L 271.297956 159.48994 
L 272.045664 237.471765 
L 272.058898 237.373245 
L 272.11845 233.457555 
L 272.31034 201.786397 
L 272.839691 134.371082 
L 272.872775 132.683135 
L 272.912477 135.722608 
L 273.342575 189.912086 
L 273.39551 190.566733 
L 273.448445 189.852311 
L 273.620484 188.525544 
L 273.686653 188.05877 
L 273.746205 188.248323 
L 273.858692 188.324215 
L 273.805757 188.188659 
L 273.871926 188.29755 
L 274.0969 186.324977 
L 274.242471 170.943267 
L 274.493913 139.407018 
L 274.533615 140.822389 
L 274.71227 158.984674 
L 275.314407 241.574915 
L 275.380576 239.291181 
L 275.539382 215.001959 
L 276.002564 123.573522 
L 276.134902 119.146981 
L 276.18122 121.467518 
L 276.340025 161.658205 
L 276.571616 199.143445 
L 276.578233 199.150568 
L 276.598084 199.064783 
L 276.69072 197.343444 
L 277.067883 187.709213 
L 277.107584 187.443239 
L 277.153902 187.887724 
L 277.193604 188.431312 
L 277.246539 187.745859 
L 277.273006 187.523468 
L 277.319325 188.112786 
L 277.405344 188.960367 
L 277.458279 188.691441 
L 277.484747 188.569988 
L 277.524448 188.872823 
L 277.577383 189.354077 
L 277.656786 189.197466 
L 277.815591 190.415249 
L 277.894994 191.472207 
L 277.934695 190.81073 
L 278.033949 182.820831 
L 278.351559 136.089702 
L 278.37141 136.274858 
L 278.430962 139.559171 
L 278.867676 196.431934 
L 279.15882 240.077808 
L 279.26469 242.116364 
L 279.304391 241.542425 
L 279.403644 235.69183 
L 279.535982 211.379294 
L 279.992548 93.945702 
L 280.065333 95.275749 
L 280.105035 98.589259 
L 280.250606 143.787741 
L 280.541749 215.511539 
L 280.568217 214.844148 
L 280.865977 194.958443 
L 281.282841 153.679593 
L 281.355627 159.412497 
L 281.607068 193.073468 
L 281.633536 192.610789 
L 281.785724 183.777697 
L 281.96438 173.548797 
L 281.990848 174.541646 
L 282.169504 191.635884 
L 282.255523 189.912794 
L 282.361394 186.933647 
L 282.420946 186.990842 
L 282.440796 187.06693 
L 282.612835 189.997064 
L 282.765024 189.727561 
L 283.016466 188.050552 
L 283.089251 185.03866 
L 283.248057 160.639577 
L 283.43333 145.031365 
L 283.459797 145.303956 
L 283.525966 149.985761 
L 284.339843 234.687083 
L 284.34646 234.733224 
L 284.386161 234.349563 
L 284.485415 231.438422 
L 284.611136 213.704604 
L 284.915513 171.470073 
L 285.305909 138.168293 
L 285.338993 139.37271 
L 285.425013 153.668927 
L 285.702922 198.018124 
L 285.716156 197.906613 
L 285.808792 194.714579 
L 286.106552 185.6701 
L 286.13302 185.860321 
L 286.384462 188.917095 
L 286.404312 188.73173 
L 286.470481 185.380276 
L 286.64252 158.424115 
L 286.768241 147.79641 
L 286.807943 148.800202 
L 287.138787 172.364026 
L 287.463015 211.933111 
L 287.721073 233.035815 
L 287.774008 233.749996 
L 287.826943 233.147014 
L 287.912963 227.785627 
L 288.051918 194.940506 
L 288.283509 130.55051 
L 288.316593 132.97814 
L 288.945198 200.151282 
L 288.951815 200.003812 
L 289.064302 192.731248 
L 289.474549 139.626384 
L 289.547334 144.545401 
L 289.964198 215.224056 
L 290.02375 215.019616 
L 290.096536 212.529096 
L 290.288426 187.699916 
L 290.579569 152.098651 
L 290.632504 156.037656 
L 290.89718 187.898974 
L 290.956732 189.114613 
L 291.036134 191.053426 
L 291.095686 189.923204 
L 291.30081 186.820615 
L 291.314044 186.833217 
L 291.426531 187.539693 
L 291.558869 187.412033 
L 291.59857 186.912561 
L 291.70444 181.117698 
L 292.074986 151.024526 
L 292.10807 151.753645 
L 292.293343 167.456709 
L 292.869012 228.577488 
L 292.948415 231.383953 
L 293.014584 230.607942 
L 293.08737 226.753955 
L 293.226324 197.319004 
L 293.550552 128.10374 
L 293.610104 126.816487 
L 293.649805 127.950659 
L 293.808611 145.920895 
L 294.27841 222.164906 
L 294.291644 222.181062 
L 294.304877 222.079581 
L 294.364429 218.296121 
L 294.615871 180.926312 
L 294.834228 150.42623 
L 294.87393 151.967143 
L 295.356963 188.87693 
L 295.390047 188.584036 
L 295.4893 187.571594 
L 295.542235 187.941663 
L 295.588554 188.353493 
L 295.634872 187.855562 
L 295.661339 187.695373 
L 295.707658 188.17469 
L 295.734125 188.379674 
L 295.78706 187.934577 
L 295.813528 187.800053 
L 295.859846 188.25726 
L 296.005418 189.156458 
L 296.025268 189.045419 
L 296.091437 186.633762 
L 296.217158 172.048423 
L 296.395814 153.109721 
L 296.442132 156.296965 
L 296.48845 158.679642 
L 296.561236 157.101368 
L 296.627405 160.918687 
L 297.236159 216.573563 
L 297.27586 215.845811 
L 297.282477 215.783672 
L 297.308945 216.516047 
L 297.447899 224.256691 
L 297.520685 223.037166 
L 297.619938 216.079318 
L 297.87138 183.018934 
L 298.202225 126.11958 
L 298.36103 123.818389 
L 298.374264 124.083703 
L 298.440433 131.784474 
L 298.943316 212.377951 
L 299.016102 209.520166 
L 299.346946 181.674245 
L 299.426349 182.478433 
L 299.472667 182.18503 
L 299.512369 182.684594 
L 299.750577 187.670323 
L 299.783661 186.588129 
L 300.140973 162.702036 
L 300.25346 163.860701 
L 300.736493 197.33526 
L 301.021019 231.217917 
L 301.093805 232.696995 
L 301.133506 231.899174 
L 301.245993 221.259057 
L 301.451117 165.719054 
L 301.74226 110.801255 
L 301.762111 110.992363 
L 301.834896 110.478149 
L 301.881215 114.705612 
L 302.092955 172.802078 
L 302.324546 220.183894 
L 302.370864 221.807598 
L 302.430416 220.237808 
L 302.52967 213.402137 
L 302.953151 153.234696 
L 303.019319 158.304267 
L 303.277378 185.416615 
L 303.33693 184.61837 
L 303.462651 188.098443 
L 303.608222 187.71713 
L 303.654541 187.336066 
L 303.727326 187.583957 
L 303.793495 188.371477 
L 303.84643 187.755272 
L 303.886132 187.142727 
L 303.945684 187.966346 
L 303.965534 188.097597 
L 304.01847 187.658745 
L 304.044937 187.464638 
L 304.104489 187.930534 
L 304.157424 188.327982 
L 304.216976 188.027748 
L 304.23021 188.021064 
L 304.250061 188.115405 
L 304.52797 189.760485 
L 304.554438 189.696039 
L 304.620606 188.462001 
L 304.752944 180.582214 
L 305.050704 142.899276 
L 305.116873 148.514013 
L 305.341847 181.080925 
L 305.394782 178.179598 
L 305.42125 177.102103 
L 305.474185 179.870071 
L 305.619757 202.638329 
L 305.897666 235.663217 
L 305.904283 235.621734 
L 305.957218 232.895705 
L 306.182192 202.492918 
L 306.327764 167.716183 
L 306.532887 116.063609 
L 306.572589 119.480777 
L 307.247511 223.641616 
L 307.293829 222.438613 
L 307.333531 221.052146 
L 307.439401 208.888738 
L 307.882732 151.885249 
L 307.9092 152.969026 
L 308.306213 190.3284 
L 308.339298 189.963325 
L 308.484869 185.895135 
L 308.564272 186.94225 
L 308.597356 187.218091 
L 308.663525 186.887441 
L 308.69661 186.779937 
L 308.729694 187.025087 
L 308.901733 187.740286 
L 309.232578 189.114494 
L 309.265662 188.952456 
L 309.325214 188.5198 
L 309.411234 188.597947 
L 309.490636 188.389943 
L 309.543571 186.35055 
L 309.715611 163.110545 
L 309.874416 145.10097 
L 309.9075 146.788213 
L 310.701527 219.118562 
L 310.747845 217.241733 
L 310.999287 201.574013 
L 311.052222 203.6685 
L 311.316898 218.580727 
L 311.336748 218.306083 
L 311.442618 210.384846 
L 311.574956 187.430593 
L 311.985203 117.484708 
L 312.018288 116.536556 
L 312.071223 118.213974 
L 312.170476 128.087867 
L 312.613808 215.506126 
L 312.640275 215.698201 
L 312.679977 215.130993 
L 312.832165 207.183023 
L 313.222561 183.848289 
L 313.242412 183.919681 
L 313.612958 187.519529 
L 313.679127 186.797872 
L 313.818081 179.690715 
L 314.07614 163.953633 
L 314.089374 163.996712 
L 314.135692 165.181268 
L 314.340816 180.131982 
L 314.77753 200.529428 
L 314.942952 204.322601 
L 314.995888 203.718208 
L 315.088524 202.832239 
L 315.114992 203.305333 
L 315.273797 214.055836 
L 315.313498 215.639419 
L 315.386284 214.468327 
L 315.439219 211.733202 
L 315.703895 196.681951 
L 316.047973 171.619053 
L 316.272947 150.476859 
L 316.306031 152.096971 
L 316.378817 155.578433 
L 316.431752 153.367359 
L 316.491304 149.711856 
L 316.544239 152.663894 
L 317.000805 193.988922 
L 317.05374 193.872668 
L 317.073591 193.993437 
L 317.119909 193.653131 
L 317.344883 186.934086 
L 317.384584 186.036737 
L 317.470604 186.348313 
L 317.497071 186.556333 
L 317.768364 190.107946 
L 317.794831 190.035269 
L 317.999955 189.069907 
L 318.033039 189.131544 
L 318.059507 189.188954 
L 318.099208 189.093986 
L 318.145526 189.157432 
L 318.191845 188.798415 
L 318.277864 185.26698 
L 318.416819 170.120249 
L 318.641793 152.080382 
L 318.668261 151.651222 
L 318.714579 152.932483 
L 318.800598 166.130512 
L 318.985871 181.130567 
L 319.03219 182.135031 
L 319.124826 195.128956 
L 319.303482 215.515782 
L 319.376268 214.02629 
L 319.521839 211.035648 
L 319.601242 196.686951 
L 319.793132 161.775307 
L 319.826216 163.380188 
L 320.322483 212.361961 
L 320.461437 226.707122 
L 320.507756 223.84399 
L 321.162828 149.476378 
L 321.248847 151.267585 
L 321.301782 153.072166 
L 321.493672 181.524068 
L 321.632627 191.843081 
L 321.672328 191.564949 
L 321.910536 188.602054 
L 321.996556 187.213566 
L 322.049491 187.633036 
L 322.24138 188.929035 
L 322.261231 188.898766 
L 322.367101 188.557179 
L 322.506056 188.228408 
L 322.532524 188.268479 
L 322.757498 188.665686 
L 322.783965 188.580741 
L 322.8369 187.105688 
L 322.995706 171.323147 
L 323.180979 155.550889 
L 323.207446 156.55141 
L 323.286849 160.447653 
L 323.339784 158.550634 
L 323.372868 157.702317 
L 323.41257 159.718514 
L 324.239681 232.31734 
L 324.272765 231.532878 
L 324.398486 221.390155 
L 324.610227 163.558846 
L 324.841818 116.508123 
L 324.914603 114.633371 
L 324.947688 115.980433 
L 325.106493 138.141041 
L 325.490273 224.358905 
L 325.549825 223.341141 
L 325.675546 218.003733 
L 325.913754 186.219241 
L 326.191663 145.985256 
L 326.21813 146.772063 
L 326.297533 158.626083 
L 326.542358 191.478538 
L 326.568826 191.834319 
L 326.621761 190.788193 
L 326.721014 189.107623 
L 326.780566 189.467674 
L 326.807034 189.567358 
L 326.859969 189.254044 
L 327.137878 184.948572 
L 327.349618 162.354772 
L 327.462105 153.981789 
L 327.515041 155.735229 
L 327.958372 186.215212 
L 328.295833 212.474815 
L 328.315684 212.294202 
L 328.461256 209.382971 
L 328.534041 210.19041 
L 328.540658 210.194274 
L 328.553892 210.135598 
L 328.593593 209.754735 
L 328.626678 210.203389 
L 328.87812 221.152753 
L 328.964139 218.385123 
L 329.056776 207.710531 
L 329.275133 162.625269 
L 329.546425 116.474074 
L 329.566276 116.826985 
L 329.758166 131.004417 
L 329.923588 175.621528 
L 330.227965 219.08291 
L 330.267666 219.540556 
L 330.307368 218.674802 
L 330.452939 206.39432 
L 330.783783 182.883565 
L 330.797017 182.788309 
L 330.843335 183.305548 
L 330.869803 183.452138 
L 330.922738 182.965723 
L 330.962439 183.680534 
L 331.200647 187.675617 
L 331.246966 187.500166 
L 331.273433 187.690368 
L 331.319751 188.201283 
L 331.372687 187.671932 
L 331.57781 182.472763 
L 331.782934 176.066594 
L 331.789551 176.101925 
L 331.888804 178.236779 
L 331.98144 181.266448 
L 332.391687 207.365493 
L 332.57696 219.955124 
L 332.596811 220.260034 
L 332.636512 218.727922 
L 332.788701 198.984671 
L 333.079844 134.005147 
L 333.15263 141.098752 
L 333.55626 189.684589 
L 333.74815 219.749258 
L 333.781234 218.297164 
L 333.920189 199.063222 
L 334.251033 134.994606 
L 334.290734 132.445695 
L 334.350286 136.216354 
L 334.46939 151.324248 
L 334.833319 220.656805 
L 334.866404 221.140698 
L 334.919339 219.990774 
L 335.025209 211.411445 
L 335.329586 191.5968 
L 335.534709 185.796526 
L 335.55456 185.867482 
L 335.885405 188.5078 
L 335.978041 187.888091 
L 336.308885 182.881301 
L 336.388288 184.041031 
L 336.600028 185.717654 
L 336.646347 185.504095 
L 336.666197 185.429094 
L 336.705899 185.71584 
L 337.049977 193.074082 
L 337.394055 211.135491 
L 337.466841 209.300658 
L 337.599179 190.184179 
L 338.022659 130.40547 
L 338.055744 129.979353 
L 338.088828 130.858507 
L 338.194699 144.873173 
L 338.585095 199.928382 
L 338.671115 202.937083 
L 338.730667 201.08491 
L 338.922556 184.790196 
L 339.187232 153.20932 
L 339.226933 155.397971 
L 339.584245 192.164077 
L 339.623946 191.003163 
L 339.756284 188.579181 
L 339.782752 188.641314 
L 339.82907 188.735006 
L 339.868771 188.580384 
L 340.093746 187.587794 
L 340.106979 187.636253 
L 340.179765 188.40382 
L 340.2327 187.849793 
L 340.265785 187.608944 
L 340.325337 188.045884 
L 340.351804 187.703235 
L 340.596629 181.579381 
L 340.63633 182.9628 
L 340.695882 184.812872 
L 340.742201 183.180337 
L 340.907623 160.339768 
L 341.039961 149.574122 
L 341.079662 151.21671 
L 341.31787 182.367762 
L 341.436974 192.805441 
L 341.489909 192.012413 
L 341.536227 190.827435 
L 341.569312 192.175798 
L 341.867072 217.985453 
L 341.926624 216.065289 
L 342.178065 199.543238 
L 342.231001 202.217711 
L 342.416273 214.696022 
L 342.469209 214.101322 
L 342.502293 213.418839 
L 342.581696 202.328966 
L 343.097813 122.992238 
L 343.130897 124.658693 
L 343.31617 161.074087 
L 343.660248 225.846426 
L 343.666865 225.818 
L 343.726417 222.438637 
L 343.918307 199.148288 
L 344.355022 126.140783 
L 344.427808 132.111028 
L 344.619697 175.930244 
L 344.824821 194.134551 
L 344.831438 194.143359 
L 344.851288 194.044223 
L 344.970392 190.841022 
L 345.168899 188.495697 
L 345.175516 188.501505 
L 345.2086 188.511587 
L 345.235068 188.417435 
L 345.301237 187.939787 
L 345.354172 188.262718 
L 345.393873 188.478907 
L 345.446808 188.181579 
L 345.565912 187.760967 
L 345.585763 187.841867 
L 345.645315 188.385484 
L 345.724718 188.186178 
L 345.764419 187.774651 
L 345.850439 182.956288 
L 346.254069 154.919807 
L 346.300387 157.044734 
L 346.928991 208.273413 
L 346.968693 207.610967 
L 347.008394 207.029484 
L 347.034862 208.007003 
L 347.180433 217.175694 
L 347.246602 214.96718 
L 347.716401 186.909096 
L 348.159733 147.07565 
L 348.225902 144.383629 
L 348.285454 145.998731 
L 348.404558 161.933216 
L 348.636149 183.673475 
L 348.689084 182.777231 
L 348.695701 182.762081 
L 348.715551 182.969615 
L 348.927292 185.787158 
L 348.960376 185.748255 
L 348.993461 185.639753 
L 349.006694 185.778353 
L 349.112565 188.921205 
L 349.172117 187.369366 
L 349.225052 186.486473 
L 349.284604 187.273016 
L 349.324305 187.797953 
L 349.390474 187.31047 
L 349.423558 187.16092 
L 349.469877 187.522679 
L 349.76102 189.317815 
L 349.787487 189.207655 
L 349.966143 188.600575 
L 350.151416 187.937727 
L 350.204351 188.064247 
L 350.521962 188.59199 
L 350.574897 188.362719 
L 350.601364 188.319426 
L 350.660916 188.430408 
L 350.667533 188.426864 
L 350.740319 188.176079 
L 350.786637 187.888403 
L 350.852806 188.131934 
L 350.95206 188.279466 
L 351.329222 191.553908 
L 351.607132 199.736378 
L 351.626982 199.59796 
L 351.799021 193.054694 
L 351.812255 187.918068 
L 351.851956 193.263951 
L 351.911508 190.036539 
L 352.070314 188.086719 
L 352.26882 180.28705 
L 352.414392 177.89074 
L 352.434243 177.438585 
L 352.487178 178.839892 
L 352.639366 190.828035 
L 352.811405 188.972208 
L 352.884191 188.751816 
L 352.917275 188.831281 
L 352.956977 189.906271 
L 352.996678 188.518641 
L 353.029763 188.919235 
L 353.069464 189.107941 
L 353.148867 188.980749 
L 353.228269 189.116705 
L 353.287821 189.002444 
L 353.340756 188.981457 
L 353.347373 189.057994 
L 353.35399 189.105685 
L 353.360607 188.875648 
L 353.406925 187.126002 
L 353.426776 189.142745 
L 353.473094 188.20294 
L 353.54588 188.352571 
L 353.592198 188.312516 
L 353.704685 188.304623 
L 353.618666 188.327831 
L 353.711302 188.307719 
L 353.896575 188.326185 
L 354.677368 188.326977 
L 354.994978 188.315381 
L 355.279505 188.310916 
L 355.73607 188.327353 
L 356.318356 188.336864 
L 357.932877 188.327529 
L 358.184319 188.32586 
L 358.951878 188.330938 
L 360.877392 188.354592 
L 360.90386 188.242921 
L 360.890626 188.381931 
L 361.00973 188.29836 
L 361.214854 188.41441 
L 361.22147 188.511218 
L 361.300873 188.197238 
L 361.492763 183.476405 
L 361.60525 154.849503 
L 361.737588 119.209276 
L 361.810374 122.799796 
L 361.969179 164.614616 
L 362.260322 219.07433 
L 362.366192 229.867376 
L 362.531614 241.818648 
L 362.564699 241.198623 
L 362.683803 234.604926 
L 362.802907 207.247123 
L 363.193303 131.240093 
L 363.213154 131.561948 
L 363.266089 135.798708 
L 363.643252 191.043217 
L 363.702804 186.865008 
L 363.729271 184.64479 
L 363.768973 188.600053 
L 363.79544 188.565342 
L 363.815291 188.973951 
L 363.854992 188.181297 
L 363.894693 188.244186 
L 363.921161 188.03489 
L 363.980713 188.359224 
L 363.98733 188.346613 
L 364.013797 188.283872 
L 364.086583 188.371718 
L 364.106434 188.498904 
L 364.205687 188.452926 
L 364.245389 188.39752 
L 364.331408 188.474289 
L 364.357876 188.337097 
L 364.443895 188.411414 
L 365.363643 188.403562 
L 365.952546 188.404931 
L 366.170903 188.398766 
L 367.917762 188.396517 
L 368.235372 188.404129 
L 373.171571 188.378778 
L 373.191422 188.129288 
L 373.284058 192.547777 
L 373.297292 184.374999 
L 373.396545 186.483422 
L 373.409779 190.010128 
L 373.509032 188.047368 
L 373.575201 192.660092 
L 373.548734 184.589141 
L 373.581818 191.368786 
" clip-path="url(#pa808d21157)" style="fill: none; stroke: #4c72b0; stroke-width: 1.5; stroke-linecap: round"/>
   </g>
   <g id="line2d_16">
    <path d="M 69.218182 196.665041 
L 69.383604 196.405699 
L 69.694598 195.337926 
L 69.972507 194.822867 
L 70.118079 194.877791 
L 70.34967 195.302757 
L 70.706982 195.849968 
L 71.011359 195.883545 
L 71.45469 196.551245 
L 71.706132 196.322949 
L 71.937723 195.69899 
L 72.328119 194.927345 
L 72.572944 194.400293 
L 73.83677 190.924559 
L 73.962491 191.057854 
L 74.213933 191.737653 
L 74.372738 192.738004 
L 74.769751 195.342365 
L 75.080745 196.177221 
L 75.087362 196.174255 
L 75.166765 195.98659 
L 75.338804 194.856912 
L 75.940941 189.630296 
L 76.000493 189.686573 
L 76.146064 190.149738 
L 76.543077 191.384353 
L 76.629097 191.258776 
L 76.774668 190.531908 
L 77.165065 188.064133 
L 77.218 188.135151 
L 77.370188 188.80916 
L 77.866455 191.156774 
L 77.998793 191.264289 
L 78.031877 191.237201 
L 78.375955 190.903365 
L 78.415657 190.94824 
L 78.89869 191.485188 
L 79.388339 191.575043 
L 79.957392 192.58242 
L 79.970626 192.575884 
L 80.30147 192.283478 
L 80.466892 191.493686 
L 81.148432 187.69434 
L 81.254302 187.757519 
L 81.38664 188.273434 
L 81.638081 189.295919 
L 81.677783 189.253883 
L 81.975543 188.638716 
L 82.054945 188.752143 
L 82.365939 189.743647 
L 82.769569 190.785241 
L 82.89529 190.691905 
L 83.1732 190.399228 
L 83.199667 190.423855 
L 83.338622 190.766313 
L 83.590064 191.46378 
L 83.636382 191.415316 
L 83.762103 190.906542 
L 84.06648 188.496438 
L 84.377473 186.508729 
L 84.38409 186.510812 
L 84.450259 186.684262 
L 84.628915 188.08924 
L 84.986227 190.311757 
L 85.164883 190.474103 
L 85.317071 190.295882 
L 85.621448 189.3554 
L 85.753786 189.093654 
L 85.760403 192.877003 
L 85.866273 192.83584 
L 86.150799 192.905253 
L 86.845573 193.280164 
L 87.097014 193.216727 
L 87.321989 193.511556 
L 87.692534 193.960068 
L 87.910892 193.787034 
L 88.155717 193.333914 
L 88.55273 192.58761 
L 89.101932 192.293041 
L 89.644517 191.53347 
L 89.836406 191.634049 
L 90.570881 192.234195 
L 90.762771 192.311402 
L 90.895108 192.707282 
L 91.292122 194.04874 
L 91.44431 194.047721 
L 91.583265 193.748211 
L 91.808239 192.572454 
L 92.238337 190.673879 
L 92.489779 190.30924 
L 92.807389 190.344068 
L 93.085299 190.564848 
L 93.297039 190.594988 
L 93.760221 190.38743 
L 93.773455 190.408828 
L 93.958728 190.95364 
L 94.514546 192.771993 
L 94.646884 192.701876 
L 95.20932 192.230591 
L 95.778372 192.285837 
L 96.248171 192.653645 
L 96.261405 192.640406 
L 96.446678 192.272446 
L 96.856925 191.460331 
L 97.075282 191.549458 
L 97.525231 191.729873 
L 97.710504 191.657878 
L 98.067816 191.448543 
L 98.511147 191.790262 
L 98.861842 192.225311 
L 98.88831 192.202801 
L 99.093433 191.813547 
L 99.563232 191.018151 
L 99.728655 191.050548 
L 99.953629 191.40951 
L 100.145519 191.551694 
L 100.152135 191.547875 
L 100.337408 191.296444 
L 100.568999 191.142467 
L 100.721188 191.373075 
L 100.97263 192.223086 
L 101.263773 193.035325 
L 101.27039 193.033055 
L 101.369643 192.863922 
L 101.852676 191.43552 
L 101.932078 191.489527 
L 102.196754 191.592189 
L 102.401878 191.358806 
L 103.109885 190.283929 
L 103.348093 190.276361 
L 103.619385 189.942488 
L 103.850976 189.837113 
L 104.016398 189.765919 
L 104.221522 189.202536 
L 104.492814 188.74278 
L 104.704555 188.806554 
L 104.86336 189.035406 
L 105.690471 190.914018 
L 105.736789 190.875175 
L 105.902212 190.498394 
L 106.319076 189.067956 
L 106.385244 189.13035 
L 106.636686 189.772763 
L 106.901362 190.149144 
L 107.020466 190.014213 
L 107.609369 189.069195 
L 107.781408 188.883112 
L 108.039467 188.185777 
L 108.35046 187.490429 
L 108.363694 187.497504 
L 108.469564 187.728188 
L 108.721006 189.112844 
L 108.985682 189.957684 
L 109.118019 189.905691 
L 109.283442 189.485617 
L 109.740007 188.290829 
L 109.852494 188.426212 
L 110.090702 189.174215 
L 110.408313 189.907468 
L 111.169255 190.980212 
L 111.400846 190.857151 
L 111.718457 190.784122 
L 112.016217 190.765931 
L 112.479399 189.99172 
L 112.90288 189.148572 
L 113.32636 188.912885 
L 113.51825 188.834281 
L 113.729991 189.114545 
L 114.060835 189.88056 
L 114.424764 190.540925 
L 114.729141 190.869321 
L 115.033518 191.864566 
L 115.311427 192.39113 
L 115.41068 192.250904 
L 115.589336 191.49279 
L 116.184856 188.592628 
L 116.191473 188.593824 
L 117.131071 188.92272 
L 117.700124 189.807232 
L 117.931715 189.628392 
L 118.586787 188.949071 
L 118.911014 189.337941 
L 119.38743 189.746805 
L 119.599171 189.581028 
L 119.857229 189.469533 
L 120.485834 189.483829 
L 120.816678 189.131827 
L 121.306328 189.41093 
L 121.610705 190.008445 
L 121.815828 189.900394 
L 122.192991 189.755888 
L 122.417965 189.962032 
L 122.775277 190.236113 
L 122.96055 190.110697 
L 123.192141 189.647161 
L 123.688408 188.63213 
L 124.283928 188.475531 
L 124.601538 188.764718 
L 124.83313 189.440309 
L 125.607305 191.962414 
L 125.772728 191.816372 
L 125.984468 191.367641 
L 126.507202 189.847136 
L 126.546904 189.867015 
L 127.102722 190.099971 
L 127.837197 190.020762 
L 128.240827 189.617396 
L 128.419483 189.673791 
L 128.909133 189.979574 
L 129.259828 189.94278 
L 129.42525 190.310359 
L 129.815647 191.414063 
L 129.868582 191.352929 
L 130.007536 190.860898 
L 130.576589 188.533988 
L 130.682459 188.657971 
L 130.91405 189.37328 
L 131.277979 190.399936 
L 131.291213 190.394629 
L 131.450018 190.181419 
L 131.747778 189.847571 
L 131.906583 189.946782 
L 132.151408 190.514391 
L 132.449168 190.961824 
L 132.59474 190.867834 
L 132.780013 190.373298 
L 133.196877 189.319468 
L 133.362299 189.330518 
L 134.301897 190.167475 
L 134.78493 191.346244 
L 134.864332 191.215405 
L 135.248112 190.135941 
L 135.327515 190.221358 
L 135.506171 190.744008 
L 135.823781 192.567377 
L 136.101691 193.574861 
L 136.220795 193.520886 
L 136.432535 193.051838 
L 136.763379 192.437796 
L 137.074373 192.434806 
L 137.550789 192.454848 
L 137.894867 192.375651 
L 138.238946 192.283134 
L 138.46392 192.008373 
L 138.728595 191.752923 
L 138.748446 191.76936 
L 138.860933 192.054545 
L 139.085907 193.421197 
L 139.396901 194.942968 
L 139.549089 194.936481 
L 139.734362 194.604809 
L 140.137993 193.644306 
L 140.197545 193.696731 
L 140.501921 194.000406 
L 140.528389 193.976639 
L 140.86585 193.764956 
L 141.381968 193.904771 
L 141.65326 193.733341 
L 141.865 193.746862 
L 142.129676 194.072276 
L 142.46052 194.799739 
L 142.963404 196.054723 
L 143.095742 195.919472 
L 143.314099 195.286289 
L 143.770664 193.839419 
L 143.969171 193.908379 
L 144.306632 193.967626 
L 144.458821 193.789226 
L 144.756581 192.939053 
L 145.008022 192.544191 
L 145.133743 192.656359 
L 145.411653 193.339263 
L 146.13951 195.117228 
L 146.443887 195.233701 
L 146.589459 195.002892 
L 147.03279 194.196527 
L 147.52244 194.206445 
L 147.734181 194.115912 
L 148.005473 193.572717 
L 148.455421 192.688586 
L 148.475272 192.702278 
L 148.594376 192.966515 
L 148.825967 194.1235 
L 149.189896 195.636169 
L 149.295766 195.538363 
L 149.507507 194.82205 
L 149.8185 194.051047 
L 149.937604 194.122525 
L 150.103027 194.565339 
L 150.652228 196.077147 
L 150.949988 196.05979 
L 151.155112 196.164786 
L 151.439638 196.678048 
L 151.757249 197.071213 
L 151.968989 196.982437 
L 152.339535 196.468154 
L 152.624061 196.273699 
L 153.246049 196.296451 
L 153.66953 195.983646 
L 154.119478 196.235523 
L 154.384153 196.534377 
L 154.767933 196.53858 
L 155.231115 197.009416 
L 155.568576 197.307338 
L 156.111161 197.546703 
L 156.753 198.652892 
L 156.805935 198.608888 
L 156.997824 198.221743 
L 157.427922 197.346471 
L 157.679364 197.312032 
L 158.169014 197.342377 
L 158.334436 196.948715 
L 158.685131 196.182095 
L 158.843936 196.263222 
L 159.022592 196.633271 
L 159.598262 198.285537 
L 159.64458 198.263904 
L 159.948957 198.204079 
L 160.379054 198.578271 
L 160.418756 198.526071 
L 160.676814 197.891967 
L 160.921639 197.587436 
L 161.067211 197.718098 
L 161.43114 198.170015 
L 161.464224 198.139934 
L 161.623029 197.765056 
L 162.106062 196.5164 
L 162.297952 196.61464 
L 162.542777 196.650764 
L 162.774368 196.402616 
L 162.933173 196.329209 
L 162.953024 196.348567 
L 163.091979 196.693152 
L 163.541927 197.912245 
L 163.674265 197.822088 
L 164.256551 197.17612 
L 164.713116 197.190122 
L 165.156448 196.930019 
L 165.414507 197.185657 
L 165.659331 197.672558 
L 166.102663 198.91511 
L 166.155598 198.869769 
L 166.307787 198.462869 
L 166.909923 196.734544 
L 167.267235 196.438815 
L 167.783353 195.425396 
L 167.862755 195.538466 
L 168.041411 196.251043 
L 168.352405 197.197112 
L 168.531061 197.189471 
L 168.756035 196.894628 
L 169.245685 196.205128 
L 169.411107 196.338244 
L 169.662549 196.880129 
L 169.907374 197.156396 
L 170.244835 197.359036 
L 170.972693 198.260274 
L 170.99916 198.238341 
L 171.1712 197.912658 
L 171.502044 196.605094 
L 171.826271 195.775637 
L 172.17035 195.577818 
L 172.408558 195.624181 
L 172.712935 195.745311 
L 172.87174 195.979942 
L 173.242286 196.525563 
L 173.698851 196.448508 
L 174.036312 196.781364 
L 174.267903 197.430939 
L 174.625215 198.335756 
L 174.631832 198.333308 
L 174.744319 198.163003 
L 174.949443 197.330912 
L 175.386158 195.631124 
L 175.564813 195.670143 
L 175.822872 195.643944 
L 176.246353 195.539396 
L 176.405158 195.71403 
L 176.901425 196.472076 
L 177.126399 196.227379 
L 177.483711 195.909385 
L 177.490328 195.914276 
L 177.668984 196.203538 
L 178.238036 197.134581 
L 178.496095 197.140827 
L 178.774004 197.020941 
L 178.95266 196.625224 
L 179.495245 194.616342 
L 179.594499 194.761394 
L 179.799622 195.6435 
L 180.070915 196.431515 
L 180.216486 196.397186 
L 180.42161 196.017217 
L 180.831857 195.25507 
L 180.851707 195.265246 
L 181.367825 195.474255 
L 181.778072 195.25905 
L 181.983195 195.306249 
L 182.267722 195.699762 
L 183.200703 197.110202 
L 183.333041 196.98388 
L 183.544781 196.340609 
L 184.007963 194.996989 
L 184.153535 195.057384 
L 184.775522 195.516816 
L 184.987263 195.269323 
L 185.212237 195.173973 
L 185.556315 195.08485 
L 185.88716 194.981111 
L 186.251088 194.871867 
L 186.972329 194.176398 
L 187.263472 194.465895 
L 188.064116 195.238608 
L 188.302324 195.162763 
L 188.613318 194.828756 
L 189.552916 193.599319 
L 189.844059 193.777522 
L 190.095501 194.197779 
L 190.393261 194.562017 
L 190.697637 194.505446 
L 190.902761 194.318317 
L 191.326242 193.862325 
L 191.511515 194.129106 
L 192.107035 194.996469 
L 192.583451 194.941147 
L 192.854743 195.001792 
L 193.040016 194.874369 
L 193.24514 194.345119 
L 193.516432 193.737489 
L 193.536283 193.748304 
L 193.675237 194.003369 
L 194.118569 194.865037 
L 194.277374 194.749925 
L 194.548667 194.592895 
L 194.700855 194.846327 
L 195.038316 195.373986 
L 195.170654 195.220401 
L 195.686771 194.336649 
L 195.713239 194.354421 
L 195.85881 194.63238 
L 196.513882 196.235819 
L 196.64622 196.124789 
L 196.831493 195.588749 
L 197.307909 194.156356 
L 197.420396 194.224298 
L 197.618903 194.756649 
L 198.015916 195.690347 
L 198.207806 195.708058 
L 198.419546 195.426295 
L 199.154021 194.314478 
L 199.193722 194.355523 
L 199.365761 194.796001 
L 199.948048 196.357024 
L 200.120087 196.316985 
L 200.609736 195.988824 
L 201.039834 196.22329 
L 201.463315 196.206582 
L 202.250725 196.097817 
L 203.077836 196.193047 
L 203.468232 196.406699 
L 203.627038 196.092713 
L 204.116687 194.99543 
L 204.229174 195.154039 
L 204.454149 196.038297 
L 204.758525 196.959843 
L 204.884246 196.884439 
L 205.076136 196.438064 
L 205.354045 195.962775 
L 205.519468 196.041487 
L 206.379663 196.749048 
L 206.644339 196.773541 
L 207.008268 196.54387 
L 207.617021 195.969247 
L 207.630255 195.981388 
L 207.901547 196.415346 
L 208.305178 196.979541 
L 208.331645 196.96347 
L 208.497067 196.727456 
L 208.913931 196.174558 
L 209.271243 196.137218 
L 209.542536 196.203835 
L 210.243926 196.413487 
L 210.541686 196.388771 
L 211.051186 196.057032 
L 211.335713 196.073762 
L 211.706258 196.241676 
L 212.109889 195.858246 
L 212.162824 195.935749 
L 212.374564 196.569696 
L 212.85098 197.970817 
L 213.003169 197.824134 
L 213.578838 196.885801 
L 213.65824 196.977287 
L 214.101572 197.472985 
L 214.306696 197.554003 
L 214.710326 197.940027 
L 214.730176 197.923243 
L 214.955151 197.560068 
L 215.458034 196.738546 
L 215.649924 196.862153 
L 216.113106 197.101737 
L 216.410866 197.101602 
L 216.589522 197.404109 
L 216.999769 198.101188 
L 217.138724 197.992942 
L 217.767328 197.183786 
L 217.939367 197.271962 
L 218.296679 197.550858 
L 218.634141 197.661193 
L 218.852498 197.683731 
L 219.070855 197.40882 
L 219.348765 197.163213 
L 219.50757 197.330473 
L 220.169259 198.215166 
L 220.59274 198.213101 
L 220.751545 198.008237 
L 220.956668 197.271488 
L 221.307364 196.239388 
L 221.439701 196.269963 
L 221.61174 196.651315 
L 222.10139 197.81018 
L 222.246962 197.775196 
L 222.471936 197.38465 
L 222.703527 197.180481 
L 223.3983 196.997447 
L 223.868099 196.592677 
L 224.020288 196.781267 
L 224.774613 198.047467 
L 225.045906 198.087769 
L 225.244412 197.822861 
L 225.515705 197.014063 
L 225.839932 196.166678 
L 225.998737 196.255945 
L 226.316348 196.742269 
L 226.647193 197.170356 
L 227.520622 196.987928 
L 228.519772 197.038597 
L 228.883701 197.122314 
L 229.16161 196.974847 
L 229.56524 196.754181 
L 229.737279 197.008933 
L 230.379118 198.263874 
L 230.425436 198.22695 
L 230.690111 197.751982 
L 231.020956 197.421792 
L 231.338566 197.396863 
L 231.834833 197.458002 
L 232.675178 196.872531 
L 233.317016 197.227353 
L 233.872835 198.269045 
L 234.011789 198.096353 
L 234.488205 197.369805 
L 234.938154 197.15865 
L 235.560141 196.881113 
L 236.016707 196.98508 
L 236.241681 196.818847 
L 236.651928 196.277799 
L 236.724714 196.378707 
L 237.307 197.233878 
L 237.479039 197.15953 
L 237.783416 196.953794 
L 237.809883 196.98462 
L 238.015007 197.460997 
L 238.431871 198.347499 
L 238.564209 198.278775 
L 238.828884 197.721691 
L 239.265599 197.006775 
L 239.49719 196.929874 
L 240.053009 197.00503 
L 240.377236 196.728633 
L 240.860269 196.21384 
L 240.906587 196.275157 
L 241.131561 196.904136 
L 241.528575 197.829405 
L 241.727081 197.746693 
L 242.018225 197.692721 
L 242.17703 197.897881 
L 242.640212 198.758425 
L 242.68653 198.724084 
L 242.937972 198.316898 
L 243.215881 198.004771 
L 243.38792 198.1189 
L 244.029759 198.739937 
L 244.347369 198.530259 
L 244.605428 198.022439 
L 244.942889 197.492754 
L 245.095078 197.580387 
L 245.710448 198.114496 
L 245.968507 198.109387 
L 246.722832 198.379427 
L 246.947806 198.353758 
L 247.172781 198.624508 
L 247.437456 198.802509 
L 247.616112 198.627546 
L 247.96019 198.31845 
L 248.138846 198.541972 
L 248.423373 198.776262 
L 248.602029 198.665591 
L 249.568094 197.777521 
L 249.806302 197.857625 
L 250.276101 198.203173 
L 250.851771 198.050606 
L 251.156148 198.367074 
L 251.718583 199.001044 
L 251.91709 198.732993 
L 252.254551 198.393284 
L 252.413356 198.469067 
L 252.883155 198.832528 
L 253.081662 198.631058 
L 253.776435 197.544826 
L 253.802903 197.563424 
L 253.955091 197.838003 
L 254.411657 198.895395 
L 254.42489 198.890045 
L 254.557228 198.69405 
L 255.099813 197.614954 
L 255.132897 197.634541 
L 255.278469 197.884047 
L 255.933541 199.424915 
L 256.145281 199.250258 
L 256.535678 198.777662 
L 256.548912 198.785946 
L 257.177516 199.097677 
L 257.647315 198.648247 
L 257.859056 198.122352 
L 258.249452 197.173209 
L 258.368556 197.312974 
L 258.560446 197.915989 
L 259.003777 199.350576 
L 259.122881 199.271404 
L 259.433875 198.595485 
L 259.771336 198.039822 
L 259.930142 198.108558 
L 260.247752 198.259471 
L 261.015311 198.405522 
L 261.319688 198.878998 
L 261.564513 199.106112 
L 261.577747 199.097446 
L 261.729935 198.844179 
L 262.37839 197.527229 
L 262.557046 197.62506 
L 262.887891 198.08659 
L 263.205501 198.514857 
L 263.212118 198.511188 
L 263.35769 198.288296 
L 263.887041 197.338782 
L 264.105398 197.521671 
L 264.449476 197.703255 
L 264.667834 197.557085 
L 264.925892 197.382247 
L 264.932509 197.387444 
L 265.210419 197.770099 
L 265.468477 197.904218 
L 265.792705 197.826012 
L 266.209569 197.262716 
L 266.593348 196.81405 
L 266.858024 196.926586 
L 267.116083 197.278822 
L 267.387375 197.532762 
L 267.698369 197.552067 
L 267.92996 198.052847 
L 268.267421 198.625108 
L 268.492395 198.627679 
L 268.677668 198.315517 
L 269.028363 197.78426 
L 269.359208 197.881473 
L 269.557714 198.100581 
L 269.954728 198.497163 
L 270.12015 198.387841 
L 270.345124 197.850802 
L 270.649501 197.355031 
L 270.814923 197.446153 
L 271.159001 198.003783 
L 271.436911 198.295174 
L 271.595716 198.148716 
L 271.972879 197.747171 
L 272.20447 197.863144 
L 272.634568 198.210589 
L 272.654418 198.189967 
L 272.938944 197.698317 
L 273.150685 197.497271 
L 273.163919 197.506154 
L 273.322724 197.779897 
L 273.759439 198.46308 
L 273.918244 198.359832 
L 274.467446 197.634809 
L 274.507147 197.666359 
L 274.970329 197.956657 
L 275.175453 197.781595 
L 275.420278 197.165983 
L 275.731271 196.585099 
L 275.88346 196.67367 
L 276.128285 197.162122 
L 276.637785 198.093015 
L 276.789973 198.087261 
L 276.981863 197.714698 
L 277.438429 196.855521 
L 277.597234 196.977367 
L 277.855293 197.54064 
L 278.153053 198.000071 
L 278.298624 197.868574 
L 279.138969 196.869869 
L 279.344092 196.8173 
L 279.542599 197.06775 
L 279.820508 197.344385 
L 280.012398 197.100271 
L 280.468963 196.425808 
L 280.601301 196.561501 
L 280.826275 197.208274 
L 281.223289 198.239753 
L 281.388711 198.176884 
L 281.620302 197.704644 
L 282.182738 196.561637 
L 282.34816 196.651891 
L 282.738556 196.877666 
L 283.208355 196.926039 
L 283.625219 197.255893 
L 283.982531 196.972449 
L 284.472181 196.620918 
L 284.73024 196.781267 
L 285.094169 197.012289 
L 285.372078 196.740947 
L 285.72939 196.385602 
L 286.020533 196.495687 
L 286.457248 196.657044 
L 286.887345 196.504359 
L 287.383612 196.579859 
L 287.767391 197.102852 
L 288.071768 197.35967 
L 288.230574 197.255223 
L 288.415847 196.802896 
L 288.898879 195.516864 
L 289.070918 195.52161 
L 289.223107 195.832834 
L 289.759075 197.305221 
L 289.792159 197.285365 
L 289.924497 197.017463 
L 290.334744 196.156503 
L 290.5134 196.186812 
L 290.764842 196.551843 
L 291.287576 197.376385 
L 291.572102 197.129344 
L 291.850012 196.621652 
L 292.200707 196.100351 
L 292.366129 196.243409 
L 292.624188 196.870115 
L 292.974883 197.53768 
L 293.140305 197.427219 
L 293.888013 196.674219 
L 294.112988 196.858116 
L 294.562936 197.230046 
L 294.721741 197.53985 
L 295.17169 198.545615 
L 295.19154 198.536682 
L 295.343729 198.320133 
L 295.562086 197.528004 
L 295.952483 196.265155 
L 296.131139 196.221365 
L 296.283327 196.491989 
L 296.620788 197.728884 
L 296.892081 198.340409 
L 297.044269 198.268515 
L 297.739042 197.682304 
L 298.87053 198.570083 
L 299.188141 198.760888 
L 299.512369 198.721268 
L 300.021869 198.478021 
L 300.630623 198.585209 
L 300.829129 198.311527 
L 301.285695 197.664014 
L 301.510669 197.782233 
L 301.795195 198.210417 
L 302.033403 198.412308 
L 302.192208 198.206552 
L 302.470118 197.937127 
L 302.668624 197.979255 
L 304.177275 199.152547 
L 304.395632 198.737433 
L 304.746327 198.122041 
L 304.905133 198.311617 
L 305.401399 198.846084 
L 305.805029 198.878029 
L 306.31453 199.549276 
L 306.374082 199.487482 
L 306.625524 198.980416 
L 306.929901 198.522388 
L 307.075472 198.587429 
L 307.796713 199.600228 
L 308.041538 199.809257 
L 308.180492 199.59971 
L 308.637058 198.849708 
L 308.789246 198.98595 
L 309.278896 199.571303 
L 309.437701 199.331133 
L 309.861182 198.31779 
L 309.940585 198.404306 
L 310.225111 199.112276 
L 310.522871 199.562337 
L 310.668443 199.441149 
L 310.933118 198.813571 
L 311.211027 198.393882 
L 311.349982 198.480494 
L 312.627041 199.878876 
L 312.825548 199.793549 
L 313.083607 199.442009 
L 313.460769 199.046785 
L 314.062906 198.990137 
L 314.446686 198.670976 
L 314.598874 198.861675 
L 315.280414 200.135564 
L 315.320115 200.107366 
L 315.842849 199.782847 
L 316.378817 200.281763 
L 316.431752 200.213067 
L 316.841999 199.792052 
L 317.073591 199.827933 
L 317.404435 200.079949 
L 317.444136 200.024075 
L 317.629409 199.455879 
L 318.006572 198.401301 
L 318.013189 198.403248 
L 318.112442 198.565564 
L 318.383734 199.713327 
L 318.674878 200.54149 
L 318.820449 200.479644 
L 319.32995 200.064985 
L 320.03134 200.450773 
L 320.659944 200.499147 
L 321.202529 200.692244 
L 321.745114 200.192472 
L 321.983322 200.257856 
L 322.234764 200.339978 
L 322.41342 200.070748 
L 322.863368 199.120462 
L 322.916303 199.167946 
L 323.081725 199.606458 
L 323.392719 200.232 
L 323.577992 200.23055 
L 323.829434 199.916946 
L 324.160278 199.611741 
L 324.663162 199.572532 
L 324.914603 199.496813 
L 325.21898 199.650516 
L 326.013007 200.392566 
L 326.251215 200.4371 
L 326.529124 200.265434 
L 326.926138 199.915356 
L 327.349618 200.060211 
L 327.567976 199.85535 
L 327.759865 199.310562 
L 328.130411 198.344656 
L 328.256132 198.453639 
L 328.520808 199.06692 
L 328.917821 199.92143 
L 329.076626 199.841961 
L 329.658912 199.104837 
L 330.002991 198.834998 
L 330.274283 198.898808 
L 330.532342 199.245922 
L 331.08816 200.091467 
L 331.273433 200.042611 
L 331.531492 199.644569 
L 332.206415 198.38878 
L 332.543876 198.312017 
L 332.762233 198.540399 
L 333.390838 199.282544 
L 333.768 199.228384 
L 334.873021 199.261446 
L 335.078144 199.512981 
L 335.534709 200.070482 
L 335.74645 200.016211 
L 336.282418 199.545547 
L 336.295652 199.558029 
L 336.712516 199.825642 
L 336.911022 199.692639 
L 337.407289 199.234871 
L 337.592562 199.390137 
L 338.135147 199.964717 
L 339.31957 199.930029 
L 339.597479 200.03356 
L 340.312103 200.632592 
L 340.563545 200.40478 
L 341.139214 199.691216 
L 341.192149 199.754802 
L 341.42374 200.345703 
L 341.80752 201.186248 
L 341.953091 201.112821 
L 342.50891 200.587642 
L 342.7008 200.814162 
L 343.01841 201.151296 
L 343.958008 201.33103 
L 344.474126 201.858151 
L 344.705717 201.792313 
L 345.049795 201.402709 
L 345.261535 200.684403 
L 345.565912 199.92288 
L 345.704867 199.965488 
L 345.857055 200.296434 
L 346.161432 201.711934 
L 346.432725 202.477037 
L 346.538595 202.357589 
L 346.770186 201.629274 
L 347.061329 201.062638 
L 347.326005 201.044298 
L 348.907441 201.292181 
L 349.1655 200.998307 
L 349.423558 200.837972 
L 349.575747 201.072148 
L 350.052163 201.834703 
L 350.210968 201.784235 
L 350.588131 201.556839 
L 350.601364 201.571804 
L 350.839572 202.038861 
L 351.1638 202.525514 
L 351.329222 202.405681 
L 351.838723 201.948393 
L 352.321755 201.962795 
L 353.903192 201.901656 
L 354.220802 201.752748 
L 354.406075 202.024545 
L 354.981745 203.002816 
L 355.22657 202.901914 
L 355.52433 202.843229 
L 355.729453 203.087656 
L 356.020596 203.323204 
L 357.006513 203.322757 
L 357.039597 203.326513 
L 357.046214 201.752308 
L 357.152084 201.801964 
L 357.463078 202.095796 
L 357.959344 203.050803 
L 358.270338 202.831983 
L 359.229787 201.207925 
L 359.243021 201.215748 
L 359.368742 201.447618 
L 359.620183 202.610628 
L 359.937794 203.760557 
L 360.043664 203.661908 
L 360.314957 202.907291 
L 360.539931 202.602228 
L 360.546548 202.604803 
L 360.665652 202.784385 
L 360.857542 203.560943 
L 361.195003 204.743691 
L 361.360425 204.709686 
L 361.60525 204.468523 
L 361.770672 203.660262 
L 362.048582 202.692824 
L 362.154452 202.77989 
L 362.379426 203.386077 
L 362.644102 204.899182 
L 362.948478 206.239041 
L 363.034498 206.131923 
L 363.213154 205.425692 
L 363.616784 203.920591 
L 364.298324 202.880203 
L 364.49683 203.118199 
L 364.735038 203.836848 
L 365.105584 204.786392 
L 365.469513 204.94054 
L 366.230455 204.996879 
L 368.136119 204.782246 
L 368.500048 204.591778 
L 368.863977 204.680117 
L 369.313925 204.911587 
L 372.959831 204.902799 
L 373.581818 204.902603 
L 373.581818 204.902603 
" clip-path="url(#pa808d21157)" style="fill: none; stroke: #dd8452; stroke-width: 1.5; stroke-linecap: round"/>
   </g>
   <g id="patch_3">
    <path d="M 54 252 
L 54 34.56 
" style="fill: none; stroke: #ffffff; stroke-width: 1.25; stroke-linejoin: miter; stroke-linecap: square"/>
   </g>
   <g id="patch_4">
    <path d="M 388.8 252 
L 388.8 34.56 
" style="fill: none; stroke: #ffffff; stroke-width: 1.25; stroke-linejoin: miter; stroke-linecap: square"/>
   </g>
   <g id="patch_5">
    <path d="M 54 252 
L 388.8 252 
" style="fill: none; stroke: #ffffff; stroke-width: 1.25; stroke-linejoin: miter; stroke-linecap: square"/>
   </g>
   <g id="patch_6">
    <path d="M 54 34.56 
L 388.8 34.56 
" style="fill: none; stroke: #ffffff; stroke-width: 1.25; stroke-linejoin: miter; stroke-linecap: square"/>
   </g>
   <g id="legend_1">
    <g id="patch_7">
     <path d="M 326.328594 74.742656 
L 381.1 74.742656 
Q 383.3 74.742656 383.3 72.542656 
L 383.3 42.26 
Q 383.3 40.06 381.1 40.06 
L 326.328594 40.06 
Q 324.128594 40.06 324.128594 42.26 
L 324.128594 72.542656 
Q 324.128594 74.742656 326.328594 74.742656 
z
" style="fill: #eaeaf2; opacity: 0.8; stroke: #cccccc; stroke-linejoin: miter"/>
    </g>
    <g id="line2d_17">
     <path d="M 328.528594 48.483594 
L 339.528594 48.483594 
L 350.528594 48.483594 
" style="fill: none; stroke: #4c72b0; stroke-width: 1.5; stroke-linecap: round"/>
    </g>
    <g id="text_17">
     <!-- E_a -->
     <g style="fill: #262626" transform="translate(359.328594 52.333594)scale(0.11 -0.11)">
      <use xlink:href="#ArialMT-45"/>
      <use xlink:href="#ArialMT-5f" x="66.699219"/>
      <use xlink:href="#ArialMT-61" x="122.314453"/>
     </g>
    </g>
    <g id="line2d_18">
     <path d="M 328.528594 64.1775 
L 339.528594 64.1775 
L 350.528594 64.1775 
" style="fill: none; stroke: #dd8452; stroke-width: 1.5; stroke-linecap: round"/>
    </g>
    <g id="text_18">
     <!-- P(i) -->
     <g style="fill: #262626" transform="translate(359.328594 68.0275)scale(0.11 -0.11)">
      <defs>
       <path id="ArialMT-50" d="M 494 0 
L 494 4581 
L 2222 4581 
Q 2678 4581 2919 4538 
Q 3256 4481 3484 4323 
Q 3713 4166 3852 3881 
Q 3991 3597 3991 3256 
Q 3991 2672 3619 2267 
Q 3247 1863 2275 1863 
L 1100 1863 
L 1100 0 
L 494 0 
z
M 1100 2403 
L 2284 2403 
Q 2872 2403 3119 2622 
Q 3366 2841 3366 3238 
Q 3366 3525 3220 3729 
Q 3075 3934 2838 4000 
Q 2684 4041 2272 4041 
L 1100 4041 
L 1100 2403 
z
" transform="scale(0.015625)"/>
      </defs>
      <use xlink:href="#ArialMT-50"/>
      <use xlink:href="#ArialMT-28" x="66.699219"/>
      <use xlink:href="#ArialMT-69" x="100"/>
      <use xlink:href="#ArialMT-29" x="122.216797"/>
     </g>
    </g>
   </g>
  </g>
 </g>
 <defs>
  <clipPath id="pa808d21157">
   <rect x="54" y="34.56" width="334.8" height="217.44"/>
  </clipPath>
 </defs>
</svg>
